/* XPM */
static char *a82bf3d4281a484da7f45764ff4a79fccMuQV6w7T67ZiOCn[] = {
/* columns rows colors chars-per-pixel */
"128 128 16 1 ",
"  c #C0D470",
". c #90625D",
"X c #DCB98A",
"o c #78A158",
"O c #A4C263",
"+ c #8DB15D",
"@ c #C49A6C",
"# c #67835C",
"$ c #AA7959",
"% c #E8CFA6",
"& c #F3E5C2",
"* c #B68962",
"= c #754C60",
"- c #6B4B5B",
"; c #B3C373",
": c #9AB367",
/* pixels */
"                                                        ................                                                        ",
"                                                        ................                                                        ",
"                                                        ................                                                        ",
"                                                ........XXXXXXXXXXXXXXXX........                                                ",
"                                                ........XXXXXXXXXXXXXXXX........                                                ",
"                                        ........XXXXXXXXXXXXXXXXXXXXXXXXXXXXXXXX........                                        ",
"                                        ........XXXXXXXXXXXXXXXXXXXXXXXXXXXXXXXX........                                        ",
"                                        ........XXXXXXXXXXXXXXXXXXXXXXXXXXXXXXXX........                                        ",
"                                ........XXXXXXXXXXXXXXXXooooooooooooooooXXXXXXXXXXXXXXXX........                                ",
"                                ........XXXXXXXXXXXXXXXXooooooooooooooooXXXXXXXXXXXXXXXX........                                ",
"                                ........XXXXXXXXXXXXXXXXooooooooooooooooXXXXXXXXXXXXXXXX........                                ",
"                        ........XXXXXXXXXXXXXXXXoooooooo   OOOOOOOOOO   ooooooooXXXXXXXXXXXXXXXX........                        ",
"                        ........XXXXXXXXXXXXXXXXoooooooo   OOOOOOOOOO   ooooooooXXXXXXXXXXXXXXXX........                        ",
"                ........XXXXXXXXXXXXXXXXooooooooOOO++ooo   OOOOOOOOOO   ooo++OOOooooooooXXXXXXXXXXXXXXXX........                ",
"                ........XXXXXXXXXXXXXXXXooooooooOOO++ooo   OOOOOOOOOO   ooo++OOOooooooooXXXXXXXXXXXXXXXX........                ",
"                ........XXXXXXXXXXXXXXXXooooooooOOO++ooo   OOOOOOOOOO   ooo++OOOooooooooXXXXXXXXXXXXXXXX........                ",
"             ...XXXXXXXXXXXXXXXXooooooooooo     OOO++oooOOO++++++++++OOOooo++OOO     oooooooooooXXXXXXXXXXXXXXXX...             ",
"             ...XXXXXXXXXXXXXXXXooooooooooo     OOO++oooOOO++++++++++OOOooo++OOO     oooooooooooXXXXXXXXXXXXXXXX...             ",
"             ...XXXXXXXXXXXXXXXXooooooooooo     OOO++oooOOO++++++++++OOOooo++OOO     oooooooooooXXXXXXXXXXXXXXXX...             ",
"             ...XXXXXXXXooooooooOOOOO+++ooo     OOO++ooo   OOOOOOOOOO   ooo++OOO     ooo+++OOOOOooooooooXXXXXXXX...             ",
"             ...XXXXXXXXooooooooOOOOO+++ooo     OOO++ooo   OOOOOOOOOO   ooo++OOO     ooo+++OOOOOooooooooXXXXXXXX...             ",
"             ...@@@ooooo+++oo      OO+++oooOOOOOOOO++ooo   OOOOOOOOOO   ooo++OOOOOOOOooo+++OO      oo+++ooooo@@@...             ",
"             ...@@@ooooo+++oo      OO+++oooOOOOOOOO++ooo   OOOOOOOOOO   ooo++OOOOOOOOooo+++OO      oo+++ooooo@@@...             ",
"             ...@@@ooooo+++oo      OO+++oooOOOOOOOO++ooo   OOOOOOOOOO   ooo++OOOOOOOOooo+++OO      oo+++ooooo@@@...             ",
"                ...##OOO+++oo      OO+++ooo     OOO++oooOOO++++++++++OOOooo++OOO     ooo+++OO      oo+++OOO##...                ",
"                ...##OOO+++oo      OO+++ooo     OOO++oooOOO++++++++++OOOooo++OOO     ooo+++OO      oo+++OOO##...                ",
"                ...##OOO+++oo      OO+++ooo     OOO++oooOOO++++++++++OOOooo++OOO     ooo+++OO      oo+++OOO##...                ",
"                   ##OOO+++ooOOOOOOOO+++ooo     OOO++ooo   OOOOOOOOOO   ooo++OOO     ooo+++OOOOOOOOoo+++OOO##                   ",
"                   ##OOO+++ooOOOOOOOO+++ooo     OOO++ooo   OOOOOOOOOO   ooo++OOO     ooo+++OOOOOOOOoo+++OOO##                   ",
"                   ##OOO+++oo      OO+++oooOOOOOOOO++ooo   OOOOOOOOOO   ooo++OOOOOOOOooo+++OO      oo+++OOO##                   ",
"                   ##OOO+++oo      OO+++oooOOOOOOOO++ooo   OOOOOOOOOO   ooo++OOOOOOOOooo+++OO      oo+++OOO##                   ",
"                   ##OOO+++oo      OO+++oooOOOOOOOO++ooo   OOOOOOOOOO   ooo++OOOOOOOOooo+++OO      oo+++OOO##                   ",
"                   ##OOO+++oo      OO+++ooo     OOO++ooo$$$$$$$$$$$$$$$$ooo++OOO     ooo+++OO      oo+++OOO##                   ",
"                   ##OOO+++oo      OO+++ooo     OOO++ooo$$$$$$$$$$$$$$$$ooo++OOO     ooo+++OO      oo+++OOO##                   ",
"                   ##OOO+++oo      OO+++ooo     OOO++ooo$$$$$$$$$$$$$$$$ooo++OOO     ooo+++OO      oo+++OOO##                   ",
"                   ##OOO+++ooOOOOOOOO+++ooo     $$$$$$$$%%%%%%%%%%%%%%%%$$$$$$$$     ooo+++OOOOOOOOoo+++OOO##                   ",
"                   ##OOO+++ooOOOOOOOO+++ooo     $$$$$$$$%%%%%%%%%%%%%%%%$$$$$$$$     ooo+++OOOOOOOOoo+++OOO##                   ",
"                   ##OOO+++oo      OO+++$$$$$$$$%%%%%%%%&&&&&&&&&&&&&&&&%%%%%%%%$$$$$$$$+++OO      oo+++OOO##                   ",
"                   ##OOO+++oo      OO+++$$$$$$$$%%%%%%%%&&&&&&&&&&&&&&&&%%%%%%%%$$$$$$$$+++OO      oo+++OOO##                   ",
"                   ##OOO+++oo      OO+++$$$$$$$$%%%%%%%%&&&&&&&&&&&&&&&&%%%%%%%%$$$$$$$$+++OO      oo+++OOO##                   ",
"                   ##OOO+++oo   $$$$$$$$%%%%%%%%&&&&&&&&XXXXXXXXXXXXXXXX&&&&&&&&%%%%%%%%$$$$$$$$   oo+++OOO##                   ",
"                   ##OOO+++oo   $$$$$$$$%%%%%%%%&&&&&&&&XXXXXXXXXXXXXXXX&&&&&&&&%%%%%%%%$$$$$$$$   oo+++OOO##                   ",
"                   ##OOO+++oo   $$$$$$$$%%%%%%%%&&&&&&&&XXXXXXXXXXXXXXXX&&&&&&&&%%%%%%%%$$$$$$$$   oo+++OOO##                   ",
"                   ##OOO$$$$$$$$%%%%%%%%&&&&&&&&XXXXXXXXXXXXXXXXXXXXXXXXXXXXXXXX&&&&&&&&%%%%%%%%$$$$$$$$OOO##                   ",
"                   ##OOO$$$$$$$$%%%%%%%%&&&&&&&&XXXXXXXXXXXXXXXXXXXXXXXXXXXXXXXX&&&&&&&&%%%%%%%%$$$$$$$$OOO##                   ",
"                $$$$$$$$%%%%%%%%&&&&&&&&XXXXXXXXXXXXXXXX................XXXXXXXXXXXXXXXX&&&&&&&&%%%%%%%%$$$$$$$$                ",
"                $$$$$$$$%%%%%%%%&&&&&&&&XXXXXXXXXXXXXXXX................XXXXXXXXXXXXXXXX&&&&&&&&%%%%%%%%$$$$$$$$                ",
"                $$$$$$$$%%%%%%%%&&&&&&&&XXXXXXXXXXXXXXXX................XXXXXXXXXXXXXXXX&&&&&&&&%%%%%%%%$$$$$$$$                ",
"             $$$%%%%%%%%&&&&&&&&XXXXXXXXXXXXXXXX................................XXXXXXXXXXXXXXXX&&&&&&&&%%%%%%%%$$$             ",
"             $$$%%%%%%%%&&&&&&&&XXXXXXXXXXXXXXXX................................XXXXXXXXXXXXXXXX&&&&&&&&%%%%%%%%$$$             ",
"             $$$%%%%%%%%&&&&&&&&XXXXXXXXXXXXXXXX................................XXXXXXXXXXXXXXXX&&&&&&&&%%%%%%%%$$$             ",
"             $$$&&&&&&&&XXXXXXXXXXXXXXXX................................................XXXXXXXXXXXXXXXX&&&&&&&&$$$             ",
"             $$$&&&&&&&&XXXXXXXXXXXXXXXX................................................XXXXXXXXXXXXXXXX&&&&&&&&$$$             ",
"             ...XXXXXXXXXXXXXXXX................................................................XXXXXXXXXXXXXXXX...             ",
"             ...XXXXXXXXXXXXXXXX................................................................XXXXXXXXXXXXXXXX...             ",
"             ...XXXXXXXXXXXXXXXX................................................................XXXXXXXXXXXXXXXX...             ",
"             ...XXXXXXXX........$$$$$$$$$$$$$$$$$$$$$$$$$$$$$$$$$$$$$$$$$$$$$$$$$$$$$$$$$$$$$$$$........XXXXXXXX...             ",
"             ...XXXXXXXX........$$$$$$$$$$$$$$$$$$$$$$$$$$$$$$$$$$$$$$$$$$$$$$$$$$$$$$$$$$$$$$$$........XXXXXXXX...             ",
"             ...XXXXXXXX........$$$$$$$$$$$$$$$$$$$$$$$$$$$$$$$$$$$$$$$$$$$$$$$$$$$$$$$$$$$$$$$$........XXXXXXXX...             ",
"                ........***@@@@@@@@@@@@@@@@@@@@@@@@@@@@@@@@@@@@@@@@@@@@@@@@@@@@@@@@@@@@@@@@@@@@@@@@@@***........                ",
"                ........***@@@@@@@@@@@@@@@@@@@@@@@@@@@@@@@@@@@@@@@@@@@@@@@@@@@@@@@@@@@@@@@@@@@@@@@@@@***........                ",
"                     ===@@@@@@@@@@@@@@@@@@@@@@@@@@@@@@@@@@@@@@@@@@@@@@@@@@@@@@@@@@@@@@@@@@@@@@@@@@@@@@@@---                     ",
"                     ===@@@@@@@@@@@@@@@@@@@@@@@@@@@@@@@@@@@@@@@@@@@@@@@@@@@@@@@@@@@@@@@@@@@@@@@@@@@@@@@@---                     ",
"                     ===@@@@@@@@@@@@@@@@@@@@@@@@@@@@@@@@@@@@@@@@@@@@@@@@@@@@@@@@@@@@@@@@@@@@@@@@@@@@@@@@---                     ",
"                     ===$$$$$$$$$$$$$$$$$$$$$$$$$$$$$$$$$$$$$$$$$$$$$$$$$$$$$$$$$$$$$$$$$$$$$$$$$$$$$$$$===                     ",
"                     ===$$$$$$$$$$$$$$$$$$$$$$$$$$$$$$$$$$$$$$$$$$$$$$$$$$$$$$$$$$$$$$$$$$$$$$$$$$$$$$$$===                     ",
"                     ===$$$$$$$$$$$$$$$$$$$$$$$$$$$$$$$$$$$$$$$$$$$$$$$$$$$$$$$$$$$$$$$$$$$$$$$$$$$$$$$$===                     ",
"                     ===@@@@@@@@@@@@@@@@@@@@@@@@@@@@@@@@@@@@@@@@@@@@@@@@@@@@@@@@@@@@@@@@@@@@@@@@@@@@@@@@===                     ",
"                     ===@@@@@@@@@@@@@@@@@@@@@@@@@@@@@@@@@@@@@@@@@@@@@@@@@@@@@@@@@@@@@@@@@@@@@@@@@@@@@@@@===                     ",
"                     ===@@@@@@@@@@@@@@@@@@@@@@@@@@@@@@@@@@@@@@@@@@@@@@@@@@@@@@@@@@@@@@@@@@@@@@@@@@@@@@@@===                     ",
"                     ===@@@@@@@@@@@@@@@@@@@@@@@@@@@@@@@@@@@@@@@@@@@@@@@@@@@@@@@@@@@@@@@@@@@@@@@@@@@@@@@@===                     ",
"                     ===@@@@@@@@@@@@@@@@@@@@@@@@@@@@@@@@@@@@@@@@@@@@@@@@@@@@@@@@@@@@@@@@@@@@@@@@@@@@@@@@===                     ",
"                     ===@@@@@@@@========@@@@@@@@@@@@@@@@@@@@@@@@@@@@@@@@@@@@@@@@@@@@@@@@========@@@@@@@@===                     ",
"                     ===@@@@@@@@========@@@@@@@@@@@@@@@@@@@@@@@@@@@@@@@@@@@@@@@@@@@@@@@@========@@@@@@@@===                     ",
"                     ===@@@@@@@@========@@@@@@@@@@@@@@@@@@@@@@@@@@@@@@@@@@@@@@@@@@@@@@@@========@@@@@@@@===                     ",
"                     ===$$$$$===........===$$$$$$$$$$$$$================$$$$$$$$$$$$$===........===$$$$$===                     ",
"                     ===$$$$$===........===$$$$$$$$$$$$$================$$$$$$$$$$$$$===........===$$$$$===                     ",
"                     ===@@@@@===........===@@@@@@@@@@===................===@@@@@@@@@@===........===@@@@@===                     ",
"                     ===@@@@@===........===@@@@@@@@@@===................===@@@@@@@@@@===........===@@@@@===                     ",
"                     ===@@@@@===........===@@@@@@@@@@===................===@@@@@@@@@@===........===@@@@@===                     ",
"                     ===@@@@@===........===@@@@@@@@==......................==@@@@@@@@===........===@@@@@===                     ",
"                     ===@@@@@===........===@@@@@@@@==......................==@@@@@@@@===........===@@@@@===                     ",
"                     ===@@@@@===........===@@@@@@@@==......................==@@@@@@@@===........===@@@@@===                     ",
"                     ===@@@@@===@@@@@@@@===@@@@@@@@==......................==@@@@@@@@===@@@@@@@@===@@@@@===                     ",
"                     ===@@@@@===@@@@@@@@===@@@@@@@@==......................==@@@@@@@@===@@@@@@@@===@@@@@===                     ",
"                     ===$$$$$$$$XXXXXXXX$$$$$$$$$$$==......................==$$$$$$$$$$$XXXXXXXX$$$$$$$$===                     ",
"                     ===$$$$$$$$XXXXXXXX$$$$$$$$$$$==......................==$$$$$$$$$$$XXXXXXXX$$$$$$$$===                     ",
"                     ===$$$$$$$$XXXXXXXX$$$$$$$$$$$==......................==$$$$$$$$$$$XXXXXXXX$$$$$$$$===                     ",
"                     ===@@@@@@@@@@@@@@@@@@@@@@@@@@@==......................==@@@@@@@@@@@@@@@@@@@@@@@@@@@===                     ",
"                     ===@@@@@@@@@@@@@@@@@@@@@@@@@@@==......................==@@@@@@@@@@@@@@@@@@@@@@@@@@@===                     ",
"                     ===@@@@@@@@@@@@@@@@@@@@@@@@@@@==......................==@@@@@@@@@@@@@@@@@@@@@@@@@@@===                     ",
"                     ===@@@@@@@@@@@@@@@@@@@@@@@@@@@==......................==@@@@@@@@@@@@@@@@@@@@@@@@@@@===                     ",
"                     ===@@@@@@@@@@@@@@@@@@@@@@@@@@@==......................==@@@@@@@@@@@@@@@@@@@@@@@@@@@===                     ",
"                     ===@@@@@@@@@@@@@@@@@@@@@@@@@@@==...$$$$$$$$$$$$$$$$...==@@@@@@@@@@@@@@@@@@@@@@@@@@@===                     ",
"                     ===@@@@@@@@@@@@@@@@@@@@@@@@@@@==...$$$$$$$$$$$$$$$$...==@@@@@@@@@@@@@@@@@@@@@@@@@@@===                     ",
"                     ===@@@@@@@@@@@@@@@@@@@@@@@@@@@==...$$$$$$$$$$$$$$$$...==@@@@@@@@@@@@@@@@@@@@@@@@@@@===                     ",
"                        =============================$$$@@@@@@@@@@@@@@@@$$$=============================                        ",
"                        =============================$$$@@@@@@@@@@@@@@@@$$$=============================                        ",
"                        =============================$$$@@@@@@@@@@@@@@@@$$$=============================                        ",
"                        ;;;;;===*****===;;;;;;;;;;;;;...@@@**********@@@...;;;;;;;;;;;;;===*****===;;;;;                        ",
"                        ;;;;;===*****===;;;;;;;;;;;;;...@@@**********@@@...;;;;;;;;;;;;;===*****===;;;;;                        ",
"                        ;;;;;===@@@@@===;;;;;;;;;;;;;...@@@@@@@@@@@@@@@@...;;;;;;;;;;;;;===@@@@@===;;;;;                        ",
"                        ;;;;;===@@@@@===;;;;;;;;;;;;;...@@@@@@@@@@@@@@@@...;;;;;;;;;;;;;===@@@@@===;;;;;                        ",
"                        ;;;;;===@@@@@===;;;;;;;;;;;;;...@@@@@@@@@@@@@@@@...;;;;;;;;;;;;;===@@@@@===;;;;;                        ",
"                        ;;;;;===@@@@@===;;;;;;;;:::::...@@@**********@@@...;;;;;;;;;;;;;===@@@@@===;;;;;                        ",
"                        ;;;;;===@@@@@===;;;;;;;;:::::...@@@**********@@@...;;;;;;;;;;;;;===@@@@@===;;;;;                        ",
"                        ;;;;;===@@@@@===;;;;;;;;:::::...@@@**********@@@...;;;;;;;;;;;;;===@@@@@===;;;;;                        ",
"                        ;;;;;===@@@@@===;;;;;;;;:::::...@@@@@@@@@@@@@@@@...;;;;;;;;;;;;;===@@@@@===;;;;;                        ",
"                        ;;;;;===@@@@@===;;;;;;;;:::::...@@@@@@@@@@@@@@@@...;;;;;;;;;;;;;===@@@@@===;;;;;                        ",
"                        ;;;;;===@@@@@===;;;;;;;;:::::...@@@**********@@@...;;;;;;;;;;;;;===@@@@@===;;;;;                        ",
"                        ;;;;;===@@@@@===;;;;;;;;:::::...@@@**********@@@...;;;;;;;;;;;;;===@@@@@===;;;;;                        ",
"                        ;;;;;===@@@@@===;;;;;;;;:::::...@@@**********@@@...;;;;;;;;;;;;;===@@@@@===;;;;;                        ",
"                           ;;===@@@@@===::::::::;;;;;...@@@@@@@@@@@@@@@@...;;;;;;;;;;;;;===@@@@@===;;                           ",
"                           ;;===@@@@@===::::::::;;;;;...@@@@@@@@@@@@@@@@...;;;;;;;;;;;;;===@@@@@===;;                           ",
"                           ;;===@@@@@===::::::::;;;;;...@@@@@@@@@@@@@@@@...;;;;;;;;;;;;;===@@@@@===;;                           ",
"                             ;;;=====;;;::::::::;;;;;...@@@**********@@@...;;;;;;;;;;;;;;;;=====;;;                             ",
"                             ;;;=====;;;::::::::;;;;;...@@@**********@@@...;;;;;;;;;;;;;;;;=====;;;                             ",
"                                        OOOOOOOO   ;;...@@@@@@@@@@@@@@@@...;;                                                   ",
"                                        OOOOOOOO   ;;...@@@@@@@@@@@@@@@@...;;                                                   ",
"                                        OOOOOOOO   ;;...@@@@@@@@@@@@@@@@...;;                                                   ",
"                                                   ;;...@@@**********@@@...;;                                                   ",
"                                                   ;;...@@@**********@@@...;;                                                   ",
"                                                   ;;...@@@**********@@@...;;                                                   ",
"                                                   ;;...@@@@@@@@@@@@@@@@...;;                                                   ",
"                                                   ;;...@@@@@@@@@@@@@@@@...;;                                                   ",
"                                                     ;;;................;;;                                                     ",
"                                                     ;;;................;;;                                                     ",
"                                                     ;;;................;;;                                                     "
};
