/* XPM */
static char *b4cf6b37c22c409e902cc49642c616c1[] = {
/* columns rows colors chars-per-pixel */
"128 128 6 1 ",
"  c #C0D470",
". c #A4C263",
"X c #B78A62",
"o c #E8CFA6",
"O c #AA7959",
"+ c #C49A6C",
/* pixels */
"                                                                                                                                ",
"                                                                                                                                ",
"                                                                                                                                ",
"                                                                                                                                ",
"                                                                                                                                ",
"                                                                                                                                ",
"                                                                                                                                ",
"                                                                                                                                ",
"                                                                                                                                ",
"                                                                                                                                ",
"                                                                                                                                ",
"                                                                                                                                ",
"                                                                                                                                ",
"                                                                                                                                ",
"                                                                                                                                ",
"                                                                                                                                ",
"                ........        ........                                                                                        ",
"                ........        ........                                                                                        ",
"                ........        ........                                                                                        ",
"                ........        ........                                                                                        ",
"                ........        ........                                                                                        ",
"                ........        ........                                                                                        ",
"                ........        ........                                                                                        ",
"                ........        ........                                                                                        ",
"                        ........                XXXXXXXXXXXXXXXXXXXXXXXXXXXXXXXX                                                ",
"                        ........                XXXXXXXXXXXXXXXXXXXXXXXXXXXXXXXX                                                ",
"                        ........                XXXXXXXXXXXXXXXXXXXXXXXXXXXXXXXX                                                ",
"                        ........                XXXXXXXXXXXXXXXXXXXXXXXXXXXXXXXX                                                ",
"                        ........                XXXXXXXXXXXXXXXXXXXXXXXXXXXXXXXX                                                ",
"                        ........                XXXXXXXXXXXXXXXXXXXXXXXXXXXXXXXX                                                ",
"                        ........                XXXXXXXXXXXXXXXXXXXXXXXXXXXXXXXX                                                ",
"                        ........                XXXXXXXXXXXXXXXXXXXXXXXXXXXXXXXX                                                ",
"                                        XXXXXXXXooooooooooooooooooooooooooooooooXXXXXXXX                                        ",
"                                        XXXXXXXXooooooooooooooooooooooooooooooooXXXXXXXX                                        ",
"                                        XXXXXXXXooooooooooooooooooooooooooooooooXXXXXXXX                                        ",
"                                        XXXXXXXXooooooooooooooooooooooooooooooooXXXXXXXX                                        ",
"                                        XXXXXXXXooooooooooooooooooooooooooooooooXXXXXXXX                                        ",
"                                        XXXXXXXXooooooooooooooooooooooooooooooooXXXXXXXX                                        ",
"                                        XXXXXXXXooooooooooooooooooooooooooooooooXXXXXXXX                                        ",
"                                        XXXXXXXXooooooooooooooooooooooooooooooooXXXXXXXX                                        ",
"                                        XXXXXXXXooooooooooooooooooooooooooooooooXXXXXXXX                                        ",
"                                        XXXXXXXXooooooooooooooooooooooooooooooooXXXXXXXX                                        ",
"                                        XXXXXXXXooooooooooooooooooooooooooooooooXXXXXXXX                                        ",
"                                        XXXXXXXXooooooooooooooooooooooooooooooooXXXXXXXX                                        ",
"                                        XXXXXXXXooooooooooooooooooooooooooooooooXXXXXXXX                                        ",
"                                        XXXXXXXXooooooooooooooooooooooooooooooooXXXXXXXX                                        ",
"                                        XXXXXXXXooooooooooooooooooooooooooooooooXXXXXXXX                                        ",
"                                        XXXXXXXXooooooooooooooooooooooooooooooooXXXXXXXX                                        ",
"                                        OOOOOOOO++++++++oooooooooooooooo++++++++OOOOOOOOXXXXXXXX++++++++++++++++++++++++++++++++",
"                                        OOOOOOOO++++++++oooooooooooooooo++++++++OOOOOOOOXXXXXXXX++++++++++++++++++++++++++++++++",
"                                        OOOOOOOO++++++++oooooooooooooooo++++++++OOOOOOOOXXXXXXXX++++++++++++++++++++++++++++++++",
"                                        OOOOOOOO++++++++oooooooooooooooo++++++++OOOOOOOOXXXXXXXX++++++++++++++++++++++++++++++++",
"                                        OOOOOOOO++++++++oooooooooooooooo++++++++OOOOOOOOXXXXXXXX++++++++++++++++++++++++++++++++",
"                                        OOOOOOOO++++++++oooooooooooooooo++++++++OOOOOOOOXXXXXXXX++++++++++++++++++++++++++++++++",
"                                        OOOOOOOO++++++++oooooooooooooooo++++++++OOOOOOOOXXXXXXXX++++++++++++++++++++++++++++++++",
"                                        OOOOOOOO++++++++oooooooooooooooo++++++++OOOOOOOOXXXXXXXX++++++++++++++++++++++++++++++++",
"                                        OOOOOOOO++++++++++++++++++++++++++++++++OOOOOOOOOOOOOOOOOOOOOOOOOOOOOOOOOOOOOOOOOOOOOOOO",
"                                        OOOOOOOO++++++++++++++++++++++++++++++++OOOOOOOOOOOOOOOOOOOOOOOOOOOOOOOOOOOOOOOOOOOOOOOO",
"                                        OOOOOOOO++++++++++++++++++++++++++++++++OOOOOOOOOOOOOOOOOOOOOOOOOOOOOOOOOOOOOOOOOOOOOOOO",
"                                        OOOOOOOO++++++++++++++++++++++++++++++++OOOOOOOOOOOOOOOOOOOOOOOOOOOOOOOOOOOOOOOOOOOOOOOO",
"                                        OOOOOOOO++++++++++++++++++++++++++++++++OOOOOOOOOOOOOOOOOOOOOOOOOOOOOOOOOOOOOOOOOOOOOOOO",
"                                        OOOOOOOO++++++++++++++++++++++++++++++++OOOOOOOOOOOOOOOOOOOOOOOOOOOOOOOOOOOOOOOOOOOOOOOO",
"                                        OOOOOOOO++++++++++++++++++++++++++++++++OOOOOOOOOOOOOOOOOOOOOOOOOOOOOOOOOOOOOOOOOOOOOOOO",
"                                        OOOOOOOO++++++++++++++++++++++++++++++++OOOOOOOOOOOOOOOOOOOOOOOOOOOOOOOOOOOOOOOOOOOOOOOO",
"                                        OOOOOOOO++++++++++++++++++++++++++++++++OOOOOOOO                                        ",
"                                        OOOOOOOO++++++++++++++++++++++++++++++++OOOOOOOO                                        ",
"                                        OOOOOOOO++++++++++++++++++++++++++++++++OOOOOOOO                                        ",
"                                        OOOOOOOO++++++++++++++++++++++++++++++++OOOOOOOO                                        ",
"                                        OOOOOOOO++++++++++++++++++++++++++++++++OOOOOOOO                                        ",
"                                        OOOOOOOO++++++++++++++++++++++++++++++++OOOOOOOO                                        ",
"                                        OOOOOOOO++++++++++++++++++++++++++++++++OOOOOOOO                                        ",
"                                        OOOOOOOO++++++++++++++++++++++++++++++++OOOOOOOO                                        ",
"                                        OOOOOOOO++++++++OOOOOOOOOOOOOOOO++++++++OOOOOOOOXXXXXXXX++++++++++++++++++++++++++++++++",
"                                        OOOOOOOO++++++++OOOOOOOOOOOOOOOO++++++++OOOOOOOOXXXXXXXX++++++++++++++++++++++++++++++++",
"                                        OOOOOOOO++++++++OOOOOOOOOOOOOOOO++++++++OOOOOOOOXXXXXXXX++++++++++++++++++++++++++++++++",
"                                        OOOOOOOO++++++++OOOOOOOOOOOOOOOO++++++++OOOOOOOOXXXXXXXX++++++++++++++++++++++++++++++++",
"                                        OOOOOOOO++++++++OOOOOOOOOOOOOOOO++++++++OOOOOOOOXXXXXXXX++++++++++++++++++++++++++++++++",
"                                        OOOOOOOO++++++++OOOOOOOOOOOOOOOO++++++++OOOOOOOOXXXXXXXX++++++++++++++++++++++++++++++++",
"                                        OOOOOOOO++++++++OOOOOOOOOOOOOOOO++++++++OOOOOOOOXXXXXXXX++++++++++++++++++++++++++++++++",
"                                        OOOOOOOO++++++++OOOOOOOOOOOOOOOO++++++++OOOOOOOOXXXXXXXX++++++++++++++++++++++++++++++++",
"                                        OOOOOOOO++++++++OOOOOOOOOOOOOOOO++++++++OOOOOOOOOOOOOOOOOOOOOOOOOOOOOOOOOOOOOOOOOOOOOOOO",
"                                        OOOOOOOO++++++++OOOOOOOOOOOOOOOO++++++++OOOOOOOOOOOOOOOOOOOOOOOOOOOOOOOOOOOOOOOOOOOOOOOO",
"                                        OOOOOOOO++++++++OOOOOOOOOOOOOOOO++++++++OOOOOOOOOOOOOOOOOOOOOOOOOOOOOOOOOOOOOOOOOOOOOOOO",
"                                        OOOOOOOO++++++++OOOOOOOOOOOOOOOO++++++++OOOOOOOOOOOOOOOOOOOOOOOOOOOOOOOOOOOOOOOOOOOOOOOO",
"                                        OOOOOOOO++++++++OOOOOOOOOOOOOOOO++++++++OOOOOOOOOOOOOOOOOOOOOOOOOOOOOOOOOOOOOOOOOOOOOOOO",
"                                        OOOOOOOO++++++++OOOOOOOOOOOOOOOO++++++++OOOOOOOOOOOOOOOOOOOOOOOOOOOOOOOOOOOOOOOOOOOOOOOO",
"                                        OOOOOOOO++++++++OOOOOOOOOOOOOOOO++++++++OOOOOOOOOOOOOOOOOOOOOOOOOOOOOOOOOOOOOOOOOOOOOOOO",
"                                        OOOOOOOO++++++++OOOOOOOOOOOOOOOO++++++++OOOOOOOOOOOOOOOOOOOOOOOOOOOOOOOOOOOOOOOOOOOOOOOO",
"                                        OOOOOOOOXXXXXXXXOOOOOOOOOOOOOOOOXXXXXXXXOOOOOOOOOOOOOOOOOOOOOOOOOOOOOOOOOOOOOOOOOOOOOOOO",
"                                        OOOOOOOOXXXXXXXXOOOOOOOOOOOOOOOOXXXXXXXXOOOOOOOOOOOOOOOOOOOOOOOOOOOOOOOOOOOOOOOOOOOOOOOO",
"                                        OOOOOOOOXXXXXXXXOOOOOOOOOOOOOOOOXXXXXXXXOOOOOOOOOOOOOOOOOOOOOOOOOOOOOOOOOOOOOOOOOOOOOOOO",
"                                        OOOOOOOOXXXXXXXXOOOOOOOOOOOOOOOOXXXXXXXXOOOOOOOOOOOOOOOOOOOOOOOOOOOOOOOOOOOOOOOOOOOOOOOO",
"                                        OOOOOOOOXXXXXXXXOOOOOOOOOOOOOOOOXXXXXXXXOOOOOOOOOOOOOOOOOOOOOOOOOOOOOOOOOOOOOOOOOOOOOOOO",
"                                        OOOOOOOOXXXXXXXXOOOOOOOOOOOOOOOOXXXXXXXXOOOOOOOOOOOOOOOOOOOOOOOOOOOOOOOOOOOOOOOOOOOOOOOO",
"                                        OOOOOOOOXXXXXXXXOOOOOOOOOOOOOOOOXXXXXXXXOOOOOOOOOOOOOOOOOOOOOOOOOOOOOOOOOOOOOOOOOOOOOOOO",
"                                        OOOOOOOOXXXXXXXXOOOOOOOOOOOOOOOOXXXXXXXXOOOOOOOOOOOOOOOOOOOOOOOOOOOOOOOOOOOOOOOOOOOOOOOO",
"                                        OOOOOOOOXXXXXXXXOOOOOOOOOOOOOOOOXXXXXXXXOOOOOOOO                                        ",
"                                        OOOOOOOOXXXXXXXXOOOOOOOOOOOOOOOOXXXXXXXXOOOOOOOO                                        ",
"                                        OOOOOOOOXXXXXXXXOOOOOOOOOOOOOOOOXXXXXXXXOOOOOOOO                                        ",
"                                        OOOOOOOOXXXXXXXXOOOOOOOOOOOOOOOOXXXXXXXXOOOOOOOO                                        ",
"                                        OOOOOOOOXXXXXXXXOOOOOOOOOOOOOOOOXXXXXXXXOOOOOOOO                                        ",
"                                        OOOOOOOOXXXXXXXXOOOOOOOOOOOOOOOOXXXXXXXXOOOOOOOO                                        ",
"                                        OOOOOOOOXXXXXXXXOOOOOOOOOOOOOOOOXXXXXXXXOOOOOOOO                                        ",
"                                        OOOOOOOOXXXXXXXXOOOOOOOOOOOOOOOOXXXXXXXXOOOOOOOO                                        ",
"                                ........        XXXXXXXXOOOOOOOOOOOOOOOOXXXXXXXX                                                ",
"                                ........        XXXXXXXXOOOOOOOOOOOOOOOOXXXXXXXX                                                ",
"                                ........        XXXXXXXXOOOOOOOOOOOOOOOOXXXXXXXX                                                ",
"                                ........        XXXXXXXXOOOOOOOOOOOOOOOOXXXXXXXX                                                ",
"                                ........        XXXXXXXXOOOOOOOOOOOOOOOOXXXXXXXX                                                ",
"                                ........        XXXXXXXXOOOOOOOOOOOOOOOOXXXXXXXX                                                ",
"                                ........        XXXXXXXXOOOOOOOOOOOOOOOOXXXXXXXX                                                ",
"                                ........        XXXXXXXXOOOOOOOOOOOOOOOOXXXXXXXX                                                ",
"                                        ........        OOOOOOOOOOOOOOOO                                                        ",
"                                        ........        OOOOOOOOOOOOOOOO                                                        ",
"                                        ........        OOOOOOOOOOOOOOOO                                                        ",
"                                        ........        OOOOOOOOOOOOOOOO                                                        ",
"                                        ........        OOOOOOOOOOOOOOOO                                                        ",
"                                        ........        OOOOOOOOOOOOOOOO                                                        ",
"                                        ........        OOOOOOOOOOOOOOOO                                                        ",
"                                        ........        OOOOOOOOOOOOOOOO                                                        ",
"                                                        OOOOOOOOOOOOOOOO                                                        ",
"                                                        OOOOOOOOOOOOOOOO                                                        ",
"                                                        OOOOOOOOOOOOOOOO                                                        ",
"                                                        OOOOOOOOOOOOOOOO                                                        ",
"                                                        OOOOOOOOOOOOOOOO                                                        ",
"                                                        OOOOOOOOOOOOOOOO                                                        ",
"                                                        OOOOOOOOOOOOOOOO                                                        ",
"                                                        OOOOOOOOOOOOOOOO                                                        "
};
