/* XPM */
static char *cf8d387e114c4956b97611dde7439051[] = {
/* columns rows colors chars-per-pixel */
"128 128 6 1 ",
"  c #C0D470",
". c #AA7959",
"X c #A4C263",
"o c #B78A62",
"O c #E8CFA6",
"+ c #C49A6C",
/* pixels */
"                                                        ................                                                        ",
"                                                        ................                                                        ",
"                                                        ................                                                        ",
"                                                        ................                                                        ",
"                                                        ................                                                        ",
"                                                        ................                                                        ",
"                                                        ................                                                        ",
"                                                        ................                                                        ",
"                                                        ................                                                        ",
"                                                        ................                                                        ",
"                                                        ................                                                        ",
"                                                        ................                                                        ",
"                                                        ................                                                        ",
"                                                        ................                                                        ",
"                                                        ................                                                        ",
"                                                        ................                                                        ",
"                XXXXXXXX        XXXXXXXX                ................                                                        ",
"                XXXXXXXX        XXXXXXXX                ................                                                        ",
"                XXXXXXXX        XXXXXXXX                ................                                                        ",
"                XXXXXXXX        XXXXXXXX                ................                                                        ",
"                XXXXXXXX        XXXXXXXX                ................                                                        ",
"                XXXXXXXX        XXXXXXXX                ................                                                        ",
"                XXXXXXXX        XXXXXXXX                ................                                                        ",
"                XXXXXXXX        XXXXXXXX                ................                                                        ",
"                        XXXXXXXX                oooooooooooooooooooooooooooooooo                                                ",
"                        XXXXXXXX                oooooooooooooooooooooooooooooooo                                                ",
"                        XXXXXXXX                oooooooooooooooooooooooooooooooo                                                ",
"                        XXXXXXXX                oooooooooooooooooooooooooooooooo                                                ",
"                        XXXXXXXX                oooooooooooooooooooooooooooooooo                                                ",
"                        XXXXXXXX                oooooooooooooooooooooooooooooooo                                                ",
"                        XXXXXXXX                oooooooooooooooooooooooooooooooo                                                ",
"                        XXXXXXXX                oooooooooooooooooooooooooooooooo                                                ",
"                                        ooooooooOOOOOOOOOOOOOOOOOOOOOOOOOOOOOOOOoooooooo                                        ",
"                                        ooooooooOOOOOOOOOOOOOOOOOOOOOOOOOOOOOOOOoooooooo                                        ",
"                                        ooooooooOOOOOOOOOOOOOOOOOOOOOOOOOOOOOOOOoooooooo                                        ",
"                                        ooooooooOOOOOOOOOOOOOOOOOOOOOOOOOOOOOOOOoooooooo                                        ",
"                                        ooooooooOOOOOOOOOOOOOOOOOOOOOOOOOOOOOOOOoooooooo                                        ",
"                                        ooooooooOOOOOOOOOOOOOOOOOOOOOOOOOOOOOOOOoooooooo                                        ",
"                                        ooooooooOOOOOOOOOOOOOOOOOOOOOOOOOOOOOOOOoooooooo                                        ",
"                                        ooooooooOOOOOOOOOOOOOOOOOOOOOOOOOOOOOOOOoooooooo                                        ",
"                                        ooooooooOOOOOOOOOOOOOOOOOOOOOOOOOOOOOOOOoooooooo                                        ",
"                                        ooooooooOOOOOOOOOOOOOOOOOOOOOOOOOOOOOOOOoooooooo                                        ",
"                                        ooooooooOOOOOOOOOOOOOOOOOOOOOOOOOOOOOOOOoooooooo                                        ",
"                                        ooooooooOOOOOOOOOOOOOOOOOOOOOOOOOOOOOOOOoooooooo                                        ",
"                                        ooooooooOOOOOOOOOOOOOOOOOOOOOOOOOOOOOOOOoooooooo                                        ",
"                                        ooooooooOOOOOOOOOOOOOOOOOOOOOOOOOOOOOOOOoooooooo                                        ",
"                                        ooooooooOOOOOOOOOOOOOOOOOOOOOOOOOOOOOOOOoooooooo                                        ",
"                                        ooooooooOOOOOOOOOOOOOOOOOOOOOOOOOOOOOOOOoooooooo                                        ",
"++++++++++++++++++++++++++++++++oooooooo........++++++++OOOOOOOOOOOOOOOO++++++++........                                        ",
"++++++++++++++++++++++++++++++++oooooooo........++++++++OOOOOOOOOOOOOOOO++++++++........                                        ",
"++++++++++++++++++++++++++++++++oooooooo........++++++++OOOOOOOOOOOOOOOO++++++++........                                        ",
"++++++++++++++++++++++++++++++++oooooooo........++++++++OOOOOOOOOOOOOOOO++++++++........                                        ",
"++++++++++++++++++++++++++++++++oooooooo........++++++++OOOOOOOOOOOOOOOO++++++++........                                        ",
"++++++++++++++++++++++++++++++++oooooooo........++++++++OOOOOOOOOOOOOOOO++++++++........                                        ",
"++++++++++++++++++++++++++++++++oooooooo........++++++++OOOOOOOOOOOOOOOO++++++++........                                        ",
"++++++++++++++++++++++++++++++++oooooooo........++++++++OOOOOOOOOOOOOOOO++++++++........                                        ",
"................................................++++++++++++++++++++++++++++++++........                                        ",
"................................................++++++++++++++++++++++++++++++++........                                        ",
"................................................++++++++++++++++++++++++++++++++........                                        ",
"................................................++++++++++++++++++++++++++++++++........                                        ",
"................................................++++++++++++++++++++++++++++++++........                                        ",
"................................................++++++++++++++++++++++++++++++++........                                        ",
"................................................++++++++++++++++++++++++++++++++........                                        ",
"................................................++++++++++++++++++++++++++++++++........                                        ",
"                                        ........++++++++++++++++++++++++++++++++........                                        ",
"                                        ........++++++++++++++++++++++++++++++++........                                        ",
"                                        ........++++++++++++++++++++++++++++++++........                                        ",
"                                        ........++++++++++++++++++++++++++++++++........                                        ",
"                                        ........++++++++++++++++++++++++++++++++........                                        ",
"                                        ........++++++++++++++++++++++++++++++++........                                        ",
"                                        ........++++++++++++++++++++++++++++++++........                                        ",
"                                        ........++++++++++++++++++++++++++++++++........                                        ",
"++++++++++++++++++++++++++++++++oooooooo........++++++++++++++++++++++++++++++++........        XXXXXXXX                        ",
"++++++++++++++++++++++++++++++++oooooooo........++++++++++++++++++++++++++++++++........        XXXXXXXX                        ",
"++++++++++++++++++++++++++++++++oooooooo........++++++++++++++++++++++++++++++++........        XXXXXXXX                        ",
"++++++++++++++++++++++++++++++++oooooooo........++++++++++++++++++++++++++++++++........        XXXXXXXX                        ",
"++++++++++++++++++++++++++++++++oooooooo........++++++++++++++++++++++++++++++++........        XXXXXXXX                        ",
"++++++++++++++++++++++++++++++++oooooooo........++++++++++++++++++++++++++++++++........        XXXXXXXX                        ",
"++++++++++++++++++++++++++++++++oooooooo........++++++++++++++++++++++++++++++++........        XXXXXXXX                        ",
"++++++++++++++++++++++++++++++++oooooooo........++++++++++++++++++++++++++++++++........        XXXXXXXX                        ",
"................................................++++++++++++++++++++++++++++++++........XXXXXXXX                                ",
"................................................++++++++++++++++++++++++++++++++........XXXXXXXX                                ",
"................................................++++++++++++++++++++++++++++++++........XXXXXXXX                                ",
"................................................++++++++++++++++++++++++++++++++........XXXXXXXX                                ",
"................................................++++++++++++++++++++++++++++++++........XXXXXXXX                                ",
"................................................++++++++++++++++++++++++++++++++........XXXXXXXX                                ",
"................................................++++++++++++++++++++++++++++++++........XXXXXXXX                                ",
"................................................++++++++++++++++++++++++++++++++........XXXXXXXX                                ",
"................................................oooooooo++++++++++++++++oooooooo........                                        ",
"................................................oooooooo++++++++++++++++oooooooo........                                        ",
"................................................oooooooo++++++++++++++++oooooooo........                                        ",
"................................................oooooooo++++++++++++++++oooooooo........                                        ",
"................................................oooooooo++++++++++++++++oooooooo........                                        ",
"................................................oooooooo++++++++++++++++oooooooo........                                        ",
"................................................oooooooo++++++++++++++++oooooooo........                                        ",
"................................................oooooooo++++++++++++++++oooooooo........                                        ",
"                                        ........oooooooooooooooooooooooooooooooo........                                        ",
"                                        ........oooooooooooooooooooooooooooooooo........                                        ",
"                                        ........oooooooooooooooooooooooooooooooo........                                        ",
"                                        ........oooooooooooooooooooooooooooooooo........                                        ",
"                                        ........oooooooooooooooooooooooooooooooo........                                        ",
"                                        ........oooooooooooooooooooooooooooooooo........                                        ",
"                                        ........oooooooooooooooooooooooooooooooo........                                        ",
"                                        ........oooooooooooooooooooooooooooooooo........                                        ",
"                                XXXXXXXX        oooooooooooooooooooooooooooooooo                                                ",
"                                XXXXXXXX        oooooooooooooooooooooooooooooooo                                                ",
"                                XXXXXXXX        oooooooooooooooooooooooooooooooo                                                ",
"                                XXXXXXXX        oooooooooooooooooooooooooooooooo                                                ",
"                                XXXXXXXX        oooooooooooooooooooooooooooooooo                                                ",
"                                XXXXXXXX        oooooooooooooooooooooooooooooooo                                                ",
"                                XXXXXXXX        oooooooooooooooooooooooooooooooo                                                ",
"                                XXXXXXXX        oooooooooooooooooooooooooooooooo                                                ",
"                                        XXXXXXXX                                                                                ",
"                                        XXXXXXXX                                                                                ",
"                                        XXXXXXXX                                                                                ",
"                                        XXXXXXXX                                                                                ",
"                                        XXXXXXXX                                                                                ",
"                                        XXXXXXXX                                                                                ",
"                                        XXXXXXXX                                                                                ",
"                                        XXXXXXXX                                                                                ",
"                                                                                                                                ",
"                                                                                                                                ",
"                                                                                                                                ",
"                                                                                                                                ",
"                                                                                                                                ",
"                                                                                                                                ",
"                                                                                                                                ",
"                                                                                                                                "
};
