/* XPM */
static char *b6157d28a75649dd9dffa1b966ad36e2[] = {
/* columns rows colors chars-per-pixel */
"128 128 6 1 ",
"  c #C0D470",
". c #AA7959",
"X c #A4C263",
"o c #B78A62",
"O c #E8CFA6",
"+ c #C49A6C",
/* pixels */
"                                                        ................                                                        ",
"                                                        ................                                                        ",
"                                                        ................                                                        ",
"                                                        ................                                                        ",
"                                                        ................                                                        ",
"                                                        ................                                                        ",
"                                                        ................                                                        ",
"                                                        ................                                                        ",
"                                                        ................                                                        ",
"                                                        ................                                                        ",
"                                                        ................                                                        ",
"                                                        ................                                                        ",
"                                                        ................                                                        ",
"                                                        ................                                                        ",
"                                                        ................                                                        ",
"                                                        ................                                                        ",
"                XXXXXXXX        XXXXXXXX                ................                                                        ",
"                XXXXXXXX        XXXXXXXX                ................                                                        ",
"                XXXXXXXX        XXXXXXXX                ................                                                        ",
"                XXXXXXXX        XXXXXXXX                ................                                                        ",
"                XXXXXXXX        XXXXXXXX                ................                                                        ",
"                XXXXXXXX        XXXXXXXX                ................                                                        ",
"                XXXXXXXX        XXXXXXXX                ................                                                        ",
"                XXXXXXXX        XXXXXXXX                ................                                                        ",
"                        XXXXXXXX                oooooooooooooooooooooooooooooooo                                                ",
"                        XXXXXXXX                oooooooooooooooooooooooooooooooo                                                ",
"                        XXXXXXXX                oooooooooooooooooooooooooooooooo                                                ",
"                        XXXXXXXX                oooooooooooooooooooooooooooooooo                                                ",
"                        XXXXXXXX                oooooooooooooooooooooooooooooooo                                                ",
"                        XXXXXXXX                oooooooooooooooooooooooooooooooo                                                ",
"                        XXXXXXXX                oooooooooooooooooooooooooooooooo                                                ",
"                        XXXXXXXX                oooooooooooooooooooooooooooooooo                                                ",
"                                        ooooooooOOOOOOOOOOOOOOOOOOOOOOOOOOOOOOOOoooooooo                                        ",
"                                        ooooooooOOOOOOOOOOOOOOOOOOOOOOOOOOOOOOOOoooooooo                                        ",
"                                        ooooooooOOOOOOOOOOOOOOOOOOOOOOOOOOOOOOOOoooooooo                                        ",
"                                        ooooooooOOOOOOOOOOOOOOOOOOOOOOOOOOOOOOOOoooooooo                                        ",
"                                        ooooooooOOOOOOOOOOOOOOOOOOOOOOOOOOOOOOOOoooooooo                                        ",
"                                        ooooooooOOOOOOOOOOOOOOOOOOOOOOOOOOOOOOOOoooooooo                                        ",
"                                        ooooooooOOOOOOOOOOOOOOOOOOOOOOOOOOOOOOOOoooooooo                                        ",
"                                        ooooooooOOOOOOOOOOOOOOOOOOOOOOOOOOOOOOOOoooooooo                                        ",
"                                        ooooooooOOOOOOOOOOOOOOOOOOOOOOOOOOOOOOOOoooooooo                                        ",
"                                        ooooooooOOOOOOOOOOOOOOOOOOOOOOOOOOOOOOOOoooooooo                                        ",
"                                        ooooooooOOOOOOOOOOOOOOOOOOOOOOOOOOOOOOOOoooooooo                                        ",
"                                        ooooooooOOOOOOOOOOOOOOOOOOOOOOOOOOOOOOOOoooooooo                                        ",
"                                        ooooooooOOOOOOOOOOOOOOOOOOOOOOOOOOOOOOOOoooooooo                                        ",
"                                        ooooooooOOOOOOOOOOOOOOOOOOOOOOOOOOOOOOOOoooooooo                                        ",
"                                        ooooooooOOOOOOOOOOOOOOOOOOOOOOOOOOOOOOOOoooooooo                                        ",
"                                        ooooooooOOOOOOOOOOOOOOOOOOOOOOOOOOOOOOOOoooooooo                                        ",
"                                        ........++++++++OOOOOOOOOOOOOOOO++++++++........oooooooo++++++++++++++++++++++++++++++++",
"                                        ........++++++++OOOOOOOOOOOOOOOO++++++++........oooooooo++++++++++++++++++++++++++++++++",
"                                        ........++++++++OOOOOOOOOOOOOOOO++++++++........oooooooo++++++++++++++++++++++++++++++++",
"                                        ........++++++++OOOOOOOOOOOOOOOO++++++++........oooooooo++++++++++++++++++++++++++++++++",
"                                        ........++++++++OOOOOOOOOOOOOOOO++++++++........oooooooo++++++++++++++++++++++++++++++++",
"                                        ........++++++++OOOOOOOOOOOOOOOO++++++++........oooooooo++++++++++++++++++++++++++++++++",
"                                        ........++++++++OOOOOOOOOOOOOOOO++++++++........oooooooo++++++++++++++++++++++++++++++++",
"                                        ........++++++++OOOOOOOOOOOOOOOO++++++++........oooooooo++++++++++++++++++++++++++++++++",
"                                        ........++++++++++++++++++++++++++++++++................................................",
"                                        ........++++++++++++++++++++++++++++++++................................................",
"                                        ........++++++++++++++++++++++++++++++++................................................",
"                                        ........++++++++++++++++++++++++++++++++................................................",
"                                        ........++++++++++++++++++++++++++++++++................................................",
"                                        ........++++++++++++++++++++++++++++++++................................................",
"                                        ........++++++++++++++++++++++++++++++++................................................",
"                                        ........++++++++++++++++++++++++++++++++................................................",
"                                        ........++++++++++++++++++++++++++++++++........                                        ",
"                                        ........++++++++++++++++++++++++++++++++........                                        ",
"                                        ........++++++++++++++++++++++++++++++++........                                        ",
"                                        ........++++++++++++++++++++++++++++++++........                                        ",
"                                        ........++++++++++++++++++++++++++++++++........                                        ",
"                                        ........++++++++++++++++++++++++++++++++........                                        ",
"                                        ........++++++++++++++++++++++++++++++++........                                        ",
"                                        ........++++++++++++++++++++++++++++++++........                                        ",
"                                        ........++++++++++++++++++++++++++++++++........oooooooo++++++++++++++++++++++++++++++++",
"                                        ........++++++++++++++++++++++++++++++++........oooooooo++++++++++++++++++++++++++++++++",
"                                        ........++++++++++++++++++++++++++++++++........oooooooo++++++++++++++++++++++++++++++++",
"                                        ........++++++++++++++++++++++++++++++++........oooooooo++++++++++++++++++++++++++++++++",
"                                        ........++++++++++++++++++++++++++++++++........oooooooo++++++++++++++++++++++++++++++++",
"                                        ........++++++++++++++++++++++++++++++++........oooooooo++++++++++++++++++++++++++++++++",
"                                        ........++++++++++++++++++++++++++++++++........oooooooo++++++++++++++++++++++++++++++++",
"                                        ........++++++++++++++++++++++++++++++++........oooooooo++++++++++++++++++++++++++++++++",
"                                        ........++++++++++++++++++++++++++++++++................................................",
"                                        ........++++++++++++++++++++++++++++++++................................................",
"                                        ........++++++++++++++++++++++++++++++++................................................",
"                                        ........++++++++++++++++++++++++++++++++................................................",
"                                        ........++++++++++++++++++++++++++++++++................................................",
"                                        ........++++++++++++++++++++++++++++++++................................................",
"                                        ........++++++++++++++++++++++++++++++++................................................",
"                                        ........++++++++++++++++++++++++++++++++................................................",
"                                        ........oooooooo++++++++++++++++oooooooo................................................",
"                                        ........oooooooo++++++++++++++++oooooooo................................................",
"                                        ........oooooooo++++++++++++++++oooooooo................................................",
"                                        ........oooooooo++++++++++++++++oooooooo................................................",
"                                        ........oooooooo++++++++++++++++oooooooo................................................",
"                                        ........oooooooo++++++++++++++++oooooooo................................................",
"                                        ........oooooooo++++++++++++++++oooooooo................................................",
"                                        ........oooooooo++++++++++++++++oooooooo................................................",
"                                        ........oooooooooooooooooooooooooooooooo........                                        ",
"                                        ........oooooooooooooooooooooooooooooooo........                                        ",
"                                        ........oooooooooooooooooooooooooooooooo........                                        ",
"                                        ........oooooooooooooooooooooooooooooooo........                                        ",
"                                        ........oooooooooooooooooooooooooooooooo........                                        ",
"                                        ........oooooooooooooooooooooooooooooooo........                                        ",
"                                        ........oooooooooooooooooooooooooooooooo........                                        ",
"                                        ........oooooooooooooooooooooooooooooooo........                                        ",
"                                XXXXXXXX        oooooooooooooooooooooooooooooooo                                                ",
"                                XXXXXXXX        oooooooooooooooooooooooooooooooo                                                ",
"                                XXXXXXXX        oooooooooooooooooooooooooooooooo                                                ",
"                                XXXXXXXX        oooooooooooooooooooooooooooooooo                                                ",
"                                XXXXXXXX        oooooooooooooooooooooooooooooooo                                                ",
"                                XXXXXXXX        oooooooooooooooooooooooooooooooo                                                ",
"                                XXXXXXXX        oooooooooooooooooooooooooooooooo                                                ",
"                                XXXXXXXX        oooooooooooooooooooooooooooooooo                                                ",
"                                        XXXXXXXX                                                                                ",
"                                        XXXXXXXX                                                                                ",
"                                        XXXXXXXX                                                                                ",
"                                        XXXXXXXX                                                                                ",
"                                        XXXXXXXX                                                                                ",
"                                        XXXXXXXX                                                                                ",
"                                        XXXXXXXX                                                                                ",
"                                        XXXXXXXX                                                                                ",
"                                                                                                                                ",
"                                                                                                                                ",
"                                                                                                                                ",
"                                                                                                                                ",
"                                                                                                                                ",
"                                                                                                                                ",
"                                                                                                                                ",
"                                                                                                                                "
};
