/* XPM */
static char *_f21e96d94864a1686c9cb1245b0f0be[] = {
/* columns rows colors chars-per-pixel */
"128 128 6 1 ",
"  c #C0D470",
". c #A4C263",
"X c #B78A62",
"o c #E8CFA6",
"O c #C49A6C",
"+ c #AA7959",
/* pixels */
"                                                                                                                                ",
"                                                                                                                                ",
"                                                                                                                                ",
"                                                                                                                                ",
"                                                                                                                                ",
"                                                                                                                                ",
"                                                                                                                                ",
"                                                                                                                                ",
"                                                                                                                                ",
"                                                                                                                                ",
"                                                                                                                                ",
"                                                                                                                                ",
"                                                                                                                                ",
"                                                                                                                                ",
"                                                                                                                                ",
"                                                                                                                                ",
"                ........        ........                                                                                        ",
"                ........        ........                                                                                        ",
"                ........        ........                                                                                        ",
"                ........        ........                                                                                        ",
"                ........        ........                                                                                        ",
"                ........        ........                                                                                        ",
"                ........        ........                                                                                        ",
"                ........        ........                                                                                        ",
"                        ........                XXXXXXXXXXXXXXXXXXXXXXXXXXXXXXXX                                                ",
"                        ........                XXXXXXXXXXXXXXXXXXXXXXXXXXXXXXXX                                                ",
"                        ........                XXXXXXXXXXXXXXXXXXXXXXXXXXXXXXXX                                                ",
"                        ........                XXXXXXXXXXXXXXXXXXXXXXXXXXXXXXXX                                                ",
"                        ........                XXXXXXXXXXXXXXXXXXXXXXXXXXXXXXXX                                                ",
"                        ........                XXXXXXXXXXXXXXXXXXXXXXXXXXXXXXXX                                                ",
"                        ........                XXXXXXXXXXXXXXXXXXXXXXXXXXXXXXXX                                                ",
"                        ........                XXXXXXXXXXXXXXXXXXXXXXXXXXXXXXXX                                                ",
"                                        XXXXXXXXooooooooooooooooooooooooooooooooXXXXXXXX                                        ",
"                                        XXXXXXXXooooooooooooooooooooooooooooooooXXXXXXXX                                        ",
"                                        XXXXXXXXooooooooooooooooooooooooooooooooXXXXXXXX                                        ",
"                                        XXXXXXXXooooooooooooooooooooooooooooooooXXXXXXXX                                        ",
"                                        XXXXXXXXooooooooooooooooooooooooooooooooXXXXXXXX                                        ",
"                                        XXXXXXXXooooooooooooooooooooooooooooooooXXXXXXXX                                        ",
"                                        XXXXXXXXooooooooooooooooooooooooooooooooXXXXXXXX                                        ",
"                                        XXXXXXXXooooooooooooooooooooooooooooooooXXXXXXXX                                        ",
"                                        XXXXXXXXooooooooooooooooooooooooooooooooXXXXXXXX                                        ",
"                                        XXXXXXXXooooooooooooooooooooooooooooooooXXXXXXXX                                        ",
"                                        XXXXXXXXooooooooooooooooooooooooooooooooXXXXXXXX                                        ",
"                                        XXXXXXXXooooooooooooooooooooooooooooooooXXXXXXXX                                        ",
"                                        XXXXXXXXooooooooooooooooooooooooooooooooXXXXXXXX                                        ",
"                                        XXXXXXXXooooooooooooooooooooooooooooooooXXXXXXXX                                        ",
"                                        XXXXXXXXooooooooooooooooooooooooooooooooXXXXXXXX                                        ",
"                                        XXXXXXXXooooooooooooooooooooooooooooooooXXXXXXXX                                        ",
"OOOOOOOOOOOOOOOOOOOOOOOOOOOOOOOOXXXXXXXX++++++++OOOOOOOOooooooooooooooooOOOOOOOO++++++++                                        ",
"OOOOOOOOOOOOOOOOOOOOOOOOOOOOOOOOXXXXXXXX++++++++OOOOOOOOooooooooooooooooOOOOOOOO++++++++                                        ",
"OOOOOOOOOOOOOOOOOOOOOOOOOOOOOOOOXXXXXXXX++++++++OOOOOOOOooooooooooooooooOOOOOOOO++++++++                                        ",
"OOOOOOOOOOOOOOOOOOOOOOOOOOOOOOOOXXXXXXXX++++++++OOOOOOOOooooooooooooooooOOOOOOOO++++++++                                        ",
"OOOOOOOOOOOOOOOOOOOOOOOOOOOOOOOOXXXXXXXX++++++++OOOOOOOOooooooooooooooooOOOOOOOO++++++++                                        ",
"OOOOOOOOOOOOOOOOOOOOOOOOOOOOOOOOXXXXXXXX++++++++OOOOOOOOooooooooooooooooOOOOOOOO++++++++                                        ",
"OOOOOOOOOOOOOOOOOOOOOOOOOOOOOOOOXXXXXXXX++++++++OOOOOOOOooooooooooooooooOOOOOOOO++++++++                                        ",
"OOOOOOOOOOOOOOOOOOOOOOOOOOOOOOOOXXXXXXXX++++++++OOOOOOOOooooooooooooooooOOOOOOOO++++++++                                        ",
"++++++++++++++++++++++++++++++++++++++++++++++++OOOOOOOOOOOOOOOOOOOOOOOOOOOOOOOO++++++++                                        ",
"++++++++++++++++++++++++++++++++++++++++++++++++OOOOOOOOOOOOOOOOOOOOOOOOOOOOOOOO++++++++                                        ",
"++++++++++++++++++++++++++++++++++++++++++++++++OOOOOOOOOOOOOOOOOOOOOOOOOOOOOOOO++++++++                                        ",
"++++++++++++++++++++++++++++++++++++++++++++++++OOOOOOOOOOOOOOOOOOOOOOOOOOOOOOOO++++++++                                        ",
"++++++++++++++++++++++++++++++++++++++++++++++++OOOOOOOOOOOOOOOOOOOOOOOOOOOOOOOO++++++++                                        ",
"++++++++++++++++++++++++++++++++++++++++++++++++OOOOOOOOOOOOOOOOOOOOOOOOOOOOOOOO++++++++                                        ",
"++++++++++++++++++++++++++++++++++++++++++++++++OOOOOOOOOOOOOOOOOOOOOOOOOOOOOOOO++++++++                                        ",
"++++++++++++++++++++++++++++++++++++++++++++++++OOOOOOOOOOOOOOOOOOOOOOOOOOOOOOOO++++++++                                        ",
"                                        ++++++++OOOOOOOOOOOOOOOOOOOOOOOOOOOOOOOO++++++++                                        ",
"                                        ++++++++OOOOOOOOOOOOOOOOOOOOOOOOOOOOOOOO++++++++                                        ",
"                                        ++++++++OOOOOOOOOOOOOOOOOOOOOOOOOOOOOOOO++++++++                                        ",
"                                        ++++++++OOOOOOOOOOOOOOOOOOOOOOOOOOOOOOOO++++++++                                        ",
"                                        ++++++++OOOOOOOOOOOOOOOOOOOOOOOOOOOOOOOO++++++++                                        ",
"                                        ++++++++OOOOOOOOOOOOOOOOOOOOOOOOOOOOOOOO++++++++                                        ",
"                                        ++++++++OOOOOOOOOOOOOOOOOOOOOOOOOOOOOOOO++++++++                                        ",
"                                        ++++++++OOOOOOOOOOOOOOOOOOOOOOOOOOOOOOOO++++++++                                        ",
"OOOOOOOOOOOOOOOOOOOOOOOOOOOOOOOOXXXXXXXX++++++++OOOOOOOO++++++++++++++++OOOOOOOO++++++++        ........                        ",
"OOOOOOOOOOOOOOOOOOOOOOOOOOOOOOOOXXXXXXXX++++++++OOOOOOOO++++++++++++++++OOOOOOOO++++++++        ........                        ",
"OOOOOOOOOOOOOOOOOOOOOOOOOOOOOOOOXXXXXXXX++++++++OOOOOOOO++++++++++++++++OOOOOOOO++++++++        ........                        ",
"OOOOOOOOOOOOOOOOOOOOOOOOOOOOOOOOXXXXXXXX++++++++OOOOOOOO++++++++++++++++OOOOOOOO++++++++        ........                        ",
"OOOOOOOOOOOOOOOOOOOOOOOOOOOOOOOOXXXXXXXX++++++++OOOOOOOO++++++++++++++++OOOOOOOO++++++++        ........                        ",
"OOOOOOOOOOOOOOOOOOOOOOOOOOOOOOOOXXXXXXXX++++++++OOOOOOOO++++++++++++++++OOOOOOOO++++++++        ........                        ",
"OOOOOOOOOOOOOOOOOOOOOOOOOOOOOOOOXXXXXXXX++++++++OOOOOOOO++++++++++++++++OOOOOOOO++++++++        ........                        ",
"OOOOOOOOOOOOOOOOOOOOOOOOOOOOOOOOXXXXXXXX++++++++OOOOOOOO++++++++++++++++OOOOOOOO++++++++        ........                        ",
"++++++++++++++++++++++++++++++++++++++++++++++++OOOOOOOO++++++++++++++++OOOOOOOO++++++++........                                ",
"++++++++++++++++++++++++++++++++++++++++++++++++OOOOOOOO++++++++++++++++OOOOOOOO++++++++........                                ",
"++++++++++++++++++++++++++++++++++++++++++++++++OOOOOOOO++++++++++++++++OOOOOOOO++++++++........                                ",
"++++++++++++++++++++++++++++++++++++++++++++++++OOOOOOOO++++++++++++++++OOOOOOOO++++++++........                                ",
"++++++++++++++++++++++++++++++++++++++++++++++++OOOOOOOO++++++++++++++++OOOOOOOO++++++++........                                ",
"++++++++++++++++++++++++++++++++++++++++++++++++OOOOOOOO++++++++++++++++OOOOOOOO++++++++........                                ",
"++++++++++++++++++++++++++++++++++++++++++++++++OOOOOOOO++++++++++++++++OOOOOOOO++++++++........                                ",
"++++++++++++++++++++++++++++++++++++++++++++++++OOOOOOOO++++++++++++++++OOOOOOOO++++++++........                                ",
"++++++++++++++++++++++++++++++++++++++++++++++++XXXXXXXX++++++++++++++++XXXXXXXX++++++++                                        ",
"++++++++++++++++++++++++++++++++++++++++++++++++XXXXXXXX++++++++++++++++XXXXXXXX++++++++                                        ",
"++++++++++++++++++++++++++++++++++++++++++++++++XXXXXXXX++++++++++++++++XXXXXXXX++++++++                                        ",
"++++++++++++++++++++++++++++++++++++++++++++++++XXXXXXXX++++++++++++++++XXXXXXXX++++++++                                        ",
"++++++++++++++++++++++++++++++++++++++++++++++++XXXXXXXX++++++++++++++++XXXXXXXX++++++++                                        ",
"++++++++++++++++++++++++++++++++++++++++++++++++XXXXXXXX++++++++++++++++XXXXXXXX++++++++                                        ",
"++++++++++++++++++++++++++++++++++++++++++++++++XXXXXXXX++++++++++++++++XXXXXXXX++++++++                                        ",
"++++++++++++++++++++++++++++++++++++++++++++++++XXXXXXXX++++++++++++++++XXXXXXXX++++++++                                        ",
"                                        ++++++++XXXXXXXX++++++++++++++++XXXXXXXX++++++++                                        ",
"                                        ++++++++XXXXXXXX++++++++++++++++XXXXXXXX++++++++                                        ",
"                                        ++++++++XXXXXXXX++++++++++++++++XXXXXXXX++++++++                                        ",
"                                        ++++++++XXXXXXXX++++++++++++++++XXXXXXXX++++++++                                        ",
"                                        ++++++++XXXXXXXX++++++++++++++++XXXXXXXX++++++++                                        ",
"                                        ++++++++XXXXXXXX++++++++++++++++XXXXXXXX++++++++                                        ",
"                                        ++++++++XXXXXXXX++++++++++++++++XXXXXXXX++++++++                                        ",
"                                        ++++++++XXXXXXXX++++++++++++++++XXXXXXXX++++++++                                        ",
"                                ........        XXXXXXXX++++++++++++++++XXXXXXXX                                                ",
"                                ........        XXXXXXXX++++++++++++++++XXXXXXXX                                                ",
"                                ........        XXXXXXXX++++++++++++++++XXXXXXXX                                                ",
"                                ........        XXXXXXXX++++++++++++++++XXXXXXXX                                                ",
"                                ........        XXXXXXXX++++++++++++++++XXXXXXXX                                                ",
"                                ........        XXXXXXXX++++++++++++++++XXXXXXXX                                                ",
"                                ........        XXXXXXXX++++++++++++++++XXXXXXXX                                                ",
"                                ........        XXXXXXXX++++++++++++++++XXXXXXXX                                                ",
"                                        ........        ++++++++++++++++                                                        ",
"                                        ........        ++++++++++++++++                                                        ",
"                                        ........        ++++++++++++++++                                                        ",
"                                        ........        ++++++++++++++++                                                        ",
"                                        ........        ++++++++++++++++                                                        ",
"                                        ........        ++++++++++++++++                                                        ",
"                                        ........        ++++++++++++++++                                                        ",
"                                        ........        ++++++++++++++++                                                        ",
"                                                        ++++++++++++++++                                                        ",
"                                                        ++++++++++++++++                                                        ",
"                                                        ++++++++++++++++                                                        ",
"                                                        ++++++++++++++++                                                        ",
"                                                        ++++++++++++++++                                                        ",
"                                                        ++++++++++++++++                                                        ",
"                                                        ++++++++++++++++                                                        ",
"                                                        ++++++++++++++++                                                        "
};
