/* XPM */
static char *_0006e3ac0f543b8fe3a8bfb26e57216moeOkdKCBGbZ8vIj[] = {
/* columns rows colors chars-per-pixel */
"128 128 8 1 ",
"  c #C0D470",
". c #F3F4E7",
"X c #A4C263",
"o c #AA7959",
"O c #F3F2C0",
"+ c #F3E5C2",
"@ c #90625D",
"# c #E8CFA6",
/* pixels */
"                                                                                                                                ",
"                                                                                                                                ",
"                                                                                                                                ",
"                                                                                                                                ",
"                                                                                                                                ",
"                                                                                                                                ",
"                                                                                                                                ",
"                                                                                                                                ",
"                                                                                                                                ",
"                                                                                                                                ",
"                                                                                                                                ",
"                                                                                                                                ",
"                                                                                                                                ",
"                                                                                                                                ",
"                                                  ............................                                                  ",
"                                                  ............................                                                  ",
"                XXXXXXXX        XXXXXXXX          ............................                                                  ",
"                XXXXXXXX        XXXXXXXX          ............................                                                  ",
"                XXXXXXXX        XXXXXXXX          ............................                                                  ",
"                XXXXXXXX        XXXXXXXX          ............................                                                  ",
"                XXXXXXXX        XXXXXXXX          ............................                                                  ",
"                XXXXXXXX        XXXXXXXX   .......oooooooooooooooooooooooooooo.......                                           ",
"                XXXXXXXX        XXXXXXXX   .......oooooooooooooooooooooooooooo.......                                           ",
"                XXXXXXXX        XXXXXXXX   .......oooooooooooooooooooooooooooo.......                                           ",
"                        XXXXXXXX           .......oooooooooooooooooooooooooooo.......                                           ",
"                        XXXXXXXX           .......oooooooooooooooooooooooooooo.......                                           ",
"                        XXXXXXXX           .......oooooooooooooooooooooooooooo.......                                           ",
"                        XXXXXXXX           .......oooooooooooooooooooooooooooo.......                                           ",
"                        XXXXXXXX   ........oooooooOOOOOOOOOOOOOOOOOOOOOOOOOOOOooooooo........                                   ",
"                        XXXXXXXX   ........oooooooOOOOOOOOOOOOOOOOOOOOOOOOOOOOooooooo........                                   ",
"                        XXXXXXXX   ........oooooooOOOOOOOOOOOOOOOOOOOOOOOOOOOOooooooo........                                   ",
"                        XXXXXXXX   ........oooooooOOOOOOOOOOOOOOOOOOOOOOOOOOOOooooooo........                                   ",
"                                   ........oooooooOOOOOOOOOOOOOOOOOOOOOOOOOOOOooooooo........                                   ",
"                                   ........oooooooOOOOOOOOOOOOOOOOOOOOOOOOOOOOooooooo........                                   ",
"                                   ........oooooooOOOOOOOOOOOOOOOOOOOOOOOOOOOOooooooo........                                   ",
"                            .......ooooooooOOOOOOOOOOOOOO+++++++.......OOOOOOOOOOOOOO@@@@@@@@.......                            ",
"                            .......ooooooooOOOOOOOOOOOOOO+++++++.......OOOOOOOOOOOOOO@@@@@@@@.......                            ",
"                            .......ooooooooOOOOOOOOOOOOOO+++++++.......OOOOOOOOOOOOOO@@@@@@@@.......                            ",
"                            .......ooooooooOOOOOOOOOOOOOO+++++++.......OOOOOOOOOOOOOO@@@@@@@@.......                            ",
"                            .......ooooooooOOOOOOOOOOOOOO+++++++.......OOOOOOOOOOOOOO@@@@@@@@.......                            ",
"                            .......ooooooooOOOOOOOOOOOOOO+++++++.......OOOOOOOOOOOOOO@@@@@@@@.......                            ",
"                            .......ooooooooOOOOOOOOOOOOOO+++++++.......OOOOOOOOOOOOOO@@@@@@@@.......                            ",
"                            .......ooooooooOOOOOOOOOOOOOO+++++++.......OOOOOOOOOOOOOO@@@@@@@@.......                            ",
"                     .......oooooooOOOOOOOOOOOOOOO.......++++++++++++++OOOOOOOOOOOOOO########@@@@@@@.......                     ",
"                     .......oooooooOOOOOOOOOOOOOOO.......++++++++++++++OOOOOOOOOOOOOO########@@@@@@@.......                     ",
"                     .......oooooooOOOOOOOOOOOOOOO.......++++++++++++++OOOOOOOOOOOOOO########@@@@@@@.......                     ",
"                     .......oooooooOOOOOOOOOOOOOOO.......++++++++++++++OOOOOOOOOOOOOO########@@@@@@@.......                     ",
"                     .......oooooooOOOOOOOOOOOOOOO.......++++++++++++++OOOOOOOOOOOOOO########@@@@@@@.......                     ",
"                     .......oooooooOOOOOOOOOOOOOOO.......++++++++++++++OOOOOOOOOOOOOO########@@@@@@@.......                     ",
"                     .......oooooooOOOOOOOOOOOOOOO.......++++++++++++++OOOOOOOOOOOOOO########@@@@@@@.......                     ",
"                     .......oooooooOOOOOOOO.....................OOOOOOOOOOOOOOOOOOOOO########@@@@@@@.......                     ",
"                     .......oooooooOOOOOOOO.....................OOOOOOOOOOOOOOOOOOOOO########@@@@@@@.......                     ",
"                     .......oooooooOOOOOOOO.....................OOOOOOOOOOOOOOOOOOOOO########@@@@@@@.......                     ",
"                     .......oooooooOOOOOOOO.....................OOOOOOOOOOOOOOOOOOOOO########@@@@@@@.......                     ",
"                     .......oooooooOOOOOOOO.....................OOOOOOOOOOOOOOOOOOOOO########@@@@@@@.......                     ",
"                     .......oooooooOOOOOOOO.....................OOOOOOOOOOOOOOOOOOOOO########@@@@@@@.......                     ",
"                     .......oooooooOOOOOOOO.....................OOOOOOOOOOOOOOOOOOOOO########@@@@@@@.......                     ",
"              .......oooooooOOOOOOOOOOOOOOO+++++++.......OOOOOOOOOOOOOOOOOOOOOOOOOOOO###############@@@@@@@.......              ",
"              .......oooooooOOOOOOOOOOOOOOO+++++++.......OOOOOOOOOOOOOOOOOOOOOOOOOOOO###############@@@@@@@.......              ",
"              .......oooooooOOOOOOOOOOOOOOO+++++++.......OOOOOOOOOOOOOOOOOOOOOOOOOOOO###############@@@@@@@.......              ",
"              .......oooooooOOOOOOOOOOOOOOO+++++++.......OOOOOOOOOOOOOOOOOOOOOOOOOOOO###############@@@@@@@.......              ",
"              .......oooooooOOOOOOOOOOOOOOO+++++++.......OOOOOOOOOOOOOOOOOOOOOOOOOOOO###############@@@@@@@.......              ",
"              .......oooooooOOOOOOOOOOOOOOO+++++++.......OOOOOOOOOOOOOOOOOOOOOOOOOOOO###############@@@@@@@.......              ",
"              .......oooooooOOOOOOOOOOOOOOO+++++++.......OOOOOOOOOOOOOOOOOOOOOOOOOOOO###############@@@@@@@.......              ",
"              .......@@@@@@@OOOOOOOOOOOOOOOOOOOOOOOOOOOOOOOOOOOOOOOOOOOOOOOOOO######################@@@@@@@.......              ",
"              .......@@@@@@@OOOOOOOOOOOOOOOOOOOOOOOOOOOOOOOOOOOOOOOOOOOOOOOOOO######################@@@@@@@.......              ",
"              .......@@@@@@@OOOOOOOOOOOOOOOOOOOOOOOOOOOOOOOOOOOOOOOOOOOOOOOOOO######################@@@@@@@.......              ",
"              .......@@@@@@@OOOOOOOOOOOOOOOOOOOOOOOOOOOOOOOOOOOOOOOOOOOOOOOOOO######################@@@@@@@.......              ",
"              .......@@@@@@@OOOOOOOOOOOOOOOOOOOOOOOOOOOOOOOOOOOOOOOOOOOOOOOOOO######################@@@@@@@.......              ",
"              .......@@@@@@@OOOOOOOOOOOOOOOOOOOOOOOOOOOOOOOOOOOOOOOOOOOOOOOOOO######################@@@@@@@.......              ",
"              .......@@@@@@@OOOOOOOOOOOOOOOOOOOOOOOOOOOOOOOOOOOOOOOOOOOOOOOOOO######################@@@@@@@.......              ",
"              .......@@@@@@@OOOOOOOOOOOOOOOOOOOOOOOOOOOOOOOOOOOOOOOOOOOOOOOOOO######################@@@@@@@.......              ",
"              .......@@@@@@@OOOOOOOOOOOOOOOOOOOOOOOOOOOOOOOOOOOOOOOOOOOOOOOOOO######################@@@@@@@.......              ",
"              .......@@@@@@@OOOOOOOOOOOOOOOOOOOOOOOOOOOOOOOOOOOOOOOOOOOOOOOOOO######################@@@@@@@.......              ",
"              .......@@@@@@@OOOOOOOOOOOOOOOOOOOOOOOOOOOOOOOOOOOOOOOOOOOOOOOOOO######################@@@@@@@.......              ",
"              .......@@@@@@@OOOOOOOOOOOOOOOOOOOOOOOOOOOOOOOOOOOOOOOOOOOOOOOOOO######################@@@@@@@.......              ",
"              .......@@@@@@@OOOOOOOOOOOOOOOOOOOOOOOOOOOOOOOOOOOOOOOOOOOOOOOOOO######################@@@@@@@.......              ",
"              .......@@@@@@@OOOOOOOOOOOOOOOOOOOOOOOOOOOOOOOOOOOOOOOOOOOOOOOOOO######################@@@@@@@.......              ",
"              .......@@@@@@@OOOOOOOOOOOOOOOOOOOOOOOOOOOOOOOOOOOOOOOOOOO#############################@@@@@@@.......              ",
"              .......@@@@@@@OOOOOOOOOOOOOOOOOOOOOOOOOOOOOOOOOOOOOOOOOOO#############################@@@@@@@.......              ",
"              .......@@@@@@@OOOOOOOOOOOOOOOOOOOOOOOOOOOOOOOOOOOOOOOOOOO#############################@@@@@@@.......              ",
"              .......@@@@@@@OOOOOOOOOOOOOOOOOOOOOOOOOOOOOOOOOOOOOOOOOOO#############################@@@@@@@.......              ",
"              .......@@@@@@@OOOOOOOOOOOOOOOOOOOOOOOOOOOOOOOOOOOOOOOOOOO#############################@@@@@@@.......              ",
"              .......@@@@@@@OOOOOOOOOOOOOOOOOOOOOOOOOOOOOOOOOOOOOOOOOOO#############################@@@@@@@.......              ",
"              .......@@@@@@@OOOOOOOOOOOOOOOOOOOOOOOOOOOOOOOOOOOOOOOOOOO#############################@@@@@@@.......              ",
"              .......@@@@@@@OOOOOOOOOOOOOOOOOOOOOOOOOOOOOOOOOOOO####################################@@@@@@@.......              ",
"              .......@@@@@@@OOOOOOOOOOOOOOOOOOOOOOOOOOOOOOOOOOOO####################################@@@@@@@.......              ",
"              .......@@@@@@@OOOOOOOOOOOOOOOOOOOOOOOOOOOOOOOOOOOO####################################@@@@@@@.......              ",
"              .......@@@@@@@OOOOOOOOOOOOOOOOOOOOOOOOOOOOOOOOOOOO####################################@@@@@@@.......              ",
"              .......@@@@@@@OOOOOOOOOOOOOOOOOOOOOOOOOOOOOOOOOOOO####################################@@@@@@@.......              ",
"              .......@@@@@@@OOOOOOOOOOOOOOOOOOOOOOOOOOOOOOOOOOOO####################################@@@@@@@.......              ",
"              .......@@@@@@@OOOOOOOOOOOOOOOOOOOOOOOOOOOOOOOOOOOO####################################@@@@@@@.......              ",
"              .......@@@@@@@OOOOOOOOOOOOOOOOOOOOOOOOOOOOOOOOOOOO####################################@@@@@@@.......              ",
"                     .......@@@@@@@OOOOOOOOOOOOOOOOOOOOOO####################################@@@@@@@.......                     ",
"                     .......@@@@@@@OOOOOOOOOOOOOOOOOOOOOO####################################@@@@@@@.......                     ",
"                     .......@@@@@@@OOOOOOOOOOOOOOOOOOOOOO####################################@@@@@@@.......                     ",
"                     .......@@@@@@@OOOOOOOOOOOOOOOOOOOOOO####################################@@@@@@@.......                     ",
"                     .......@@@@@@@OOOOOOOOOOOOOOOOOOOOOO####################################@@@@@@@.......                     ",
"                     .......@@@@@@@OOOOOOOOOOOOOOOOOOOOOO####################################@@@@@@@.......                     ",
"                     .......@@@@@@@OOOOOOOOOOOOOOOOOOOOOO####################################@@@@@@@.......                     ",
"                            .......@@@@@@@@@@@@@@@@@@@@@@@@@@@@@@@@@@@@@@@@@@@@@@@@@@@@@@@@@@.......                            ",
"                            .......@@@@@@@@@@@@@@@@@@@@@@@@@@@@@@@@@@@@@@@@@@@@@@@@@@@@@@@@@@.......                            ",
"                            .......@@@@@@@@@@@@@@@@@@@@@@@@@@@@@@@@@@@@@@@@@@@@@@@@@@@@@@@@@@.......                            ",
"                            .......@@@@@@@@@@@@@@@@@@@@@@@@@@@@@@@@@@@@@@@@@@@@@@@@@@@@@@@@@@.......                            ",
"                            .......@@@@@@@@@@@@@@@@@@@@@@@@@@@@@@@@@@@@@@@@@@@@@@@@@@@@@@@@@@.......                            ",
"                            .......@@@@@@@@@@@@@@@@@@@@@@@@@@@@@@@@@@@@@@@@@@@@@@@@@@@@@@@@@@.......                            ",
"                            .......@@@@@@@@@@@@@@@@@@@@@@@@@@@@@@@@@@@@@@@@@@@@@@@@@@@@@@@@@@.......                            ",
"                                XXX..........................................................                                   ",
"                                XXX..........................................................                                   ",
"                                XXX..........................................................                                   ",
"                                XXX..........................................................                                   ",
"                                XXX..........................................................                                   ",
"                                   ..........................................................                                   ",
"                                   ..........................................................                                   ",
"                                        XXXXXXXX                                                                                ",
"                                        XXXXXXXX                                                                                ",
"                                        XXXXXXXX                                                                                ",
"                                        XXXXXXXX                                                                                ",
"                                        XXXXXXXX                                                                                ",
"                                        XXXXXXXX                                                                                ",
"                                                                                                                                ",
"                                                                                                                                ",
"                                                                                                                                ",
"                                                                                                                                ",
"                                                                                                                                ",
"                                                                                                                                ",
"                                                                                                                                ",
"                                                                                                                                "
};
