/* XPM */
static char *d371b935172c410be7da2f26082f8be8KtmjBDJj6xzvknY0[] = {
/* columns rows colors chars-per-pixel */
"128 128 2 1 ",
"  c #C0D470",
". c #A4C263",
/* pixels */
"                                                                                                                                ",
"                                                                                                                                ",
"                                                                                                                                ",
"                                                                                                                                ",
"                                                                                                                                ",
"                                                                                                                                ",
"                                                                                                                                ",
"                                                                                                                                ",
"                                                                                                                                ",
"                                                                                                                                ",
"                                                                                                                                ",
"                                                                                                                                ",
"                                                                                                                                ",
"                                                                                                                                ",
"                                                                                                                                ",
"                                                                                                                                ",
"                ........        ........                                                                                        ",
"                ........        ........                                                                                        ",
"                ........        ........                                                                                        ",
"                ........        ........                                                                                        ",
"                ........        ........                                                                                        ",
"                ........        ........                                                                                        ",
"                ........        ........                                                                                        ",
"                ........        ........                                                                                        ",
"                        ........                                                                                                ",
"                        ........                                                                                                ",
"                        ........                                                                                                ",
"                        ........                                                                                                ",
"                        ........                                                                                                ",
"                        ........                                                                                                ",
"                        ........                                                                                                ",
"                        ........                                                                                                ",
"                                                                                                                                ",
"                                                                                                                                ",
"                                                                                                                                ",
"                                                                                                                                ",
"                                                                                                                                ",
"                                                                                                                                ",
"                                                                                                                                ",
"                                                                                                                                ",
"                                                                                                                                ",
"                                                                                                                                ",
"                                                                                                                                ",
"                                                                                                                                ",
"                                                                                                                                ",
"                                                                                                                                ",
"                                                                                                                                ",
"                                                                                                                                ",
"                                                                                                                                ",
"                                                                                                                                ",
"                                                                                                                                ",
"                                                                                                                                ",
"                                                                                                                                ",
"                                                                                                                                ",
"                                                                                                                                ",
"                                                                                                                                ",
"                                                                                                                                ",
"                                                                                                                                ",
"                                                                                                                                ",
"                                                                                                                                ",
"                                                                                                                                ",
"                                                                                                                                ",
"                                                                                                                                ",
"                                                                                                                                ",
"                                                                                                                                ",
"                                                                                                                                ",
"                                                                                                                                ",
"                                                                                                                                ",
"                                                                                                                                ",
"                                                                                                                                ",
"                                                                                                                                ",
"                                                                                                                                ",
"                                                                                ........        ........                        ",
"                                                                                ........        ........                        ",
"                                                                                ........        ........                        ",
"                                                                                ........        ........                        ",
"                                                                                ........        ........                        ",
"                                                                                ........        ........                        ",
"                                                                                ........        ........                        ",
"                                                                                ........        ........                        ",
"                                                                                        ........                                ",
"                                                                                        ........                                ",
"                                                                                        ........                                ",
"                                                                                        ........                                ",
"                                                                                        ........                                ",
"                                                                                        ........                                ",
"                                                                                        ........                                ",
"                                                                                        ........                                ",
"                                                                                                                                ",
"                                                                                                                                ",
"                                                                                                                                ",
"                                                                                                                                ",
"                                                                                                                                ",
"                                                                                                                                ",
"                                                                                                                                ",
"                                                                                                                                ",
"                                                                                                                                ",
"                                                                                                                                ",
"                                                                                                                                ",
"                                                                                                                                ",
"                                                                                                                                ",
"                                                                                                                                ",
"                                                                                                                                ",
"                                                                                                                                ",
"                                ........        ........                                                                        ",
"                                ........        ........                                                                        ",
"                                ........        ........                                                                        ",
"                                ........        ........                                                                        ",
"                                ........        ........                                                                        ",
"                                ........        ........                                                                        ",
"                                ........        ........                                                                        ",
"                                ........        ........                                                                        ",
"                                        ........                                                                                ",
"                                        ........                                                                                ",
"                                        ........                                                                                ",
"                                        ........                                                                                ",
"                                        ........                                                                                ",
"                                        ........                                                                                ",
"                                        ........                                                                                ",
"                                        ........                                                                                ",
"                                                                                                                                ",
"                                                                                                                                ",
"                                                                                                                                ",
"                                                                                                                                ",
"                                                                                                                                ",
"                                                                                                                                ",
"                                                                                                                                ",
"                                                                                                                                "
};
