/* XPM */
static char *f3dfb98323b3474fefb3586ef38f7f1fkKs5gHIIbAXVhx6m[] = {
/* columns rows colors chars-per-pixel */
"128 128 6 1 ",
"  c #C0D470",
". c #AA7959",
"X c #A4C263",
"o c #B78A62",
"O c #E8CFA6",
"+ c #C49A6C",
/* pixels */
"                                                        ................                                                        ",
"                                                        ................                                                        ",
"                                                        ................                                                        ",
"                                                        ................                                                        ",
"                                                        ................                                                        ",
"                                                        ................                                                        ",
"                                                        ................                                                        ",
"                                                        ................                                                        ",
"                                                        ................                                                        ",
"                                                        ................                                                        ",
"                                                        ................                                                        ",
"                                                        ................                                                        ",
"                                                        ................                                                        ",
"                                                        ................                                                        ",
"                                                        ................                                                        ",
"                                                        ................                                                        ",
"                XXXXXXXX        XXXXXXXX                ................                                                        ",
"                XXXXXXXX        XXXXXXXX                ................                                                        ",
"                XXXXXXXX        XXXXXXXX                ................                                                        ",
"                XXXXXXXX        XXXXXXXX                ................                                                        ",
"                XXXXXXXX        XXXXXXXX                ................                                                        ",
"                XXXXXXXX        XXXXXXXX                ................                                                        ",
"                XXXXXXXX        XXXXXXXX                ................                                                        ",
"                XXXXXXXX        XXXXXXXX                ................                                                        ",
"                        XXXXXXXX                oooooooooooooooooooooooooooooooo                                                ",
"                        XXXXXXXX                oooooooooooooooooooooooooooooooo                                                ",
"                        XXXXXXXX                oooooooooooooooooooooooooooooooo                                                ",
"                        XXXXXXXX                oooooooooooooooooooooooooooooooo                                                ",
"                        XXXXXXXX                oooooooooooooooooooooooooooooooo                                                ",
"                        XXXXXXXX                oooooooooooooooooooooooooooooooo                                                ",
"                        XXXXXXXX                oooooooooooooooooooooooooooooooo                                                ",
"                        XXXXXXXX                oooooooooooooooooooooooooooooooo                                                ",
"                                        ooooooooOOOOOOOOOOOOOOOOOOOOOOOOOOOOOOOOoooooooo                                        ",
"                                        ooooooooOOOOOOOOOOOOOOOOOOOOOOOOOOOOOOOOoooooooo                                        ",
"                                        ooooooooOOOOOOOOOOOOOOOOOOOOOOOOOOOOOOOOoooooooo                                        ",
"                                        ooooooooOOOOOOOOOOOOOOOOOOOOOOOOOOOOOOOOoooooooo                                        ",
"                                        ooooooooOOOOOOOOOOOOOOOOOOOOOOOOOOOOOOOOoooooooo                                        ",
"                                        ooooooooOOOOOOOOOOOOOOOOOOOOOOOOOOOOOOOOoooooooo                                        ",
"                                        ooooooooOOOOOOOOOOOOOOOOOOOOOOOOOOOOOOOOoooooooo                                        ",
"                                        ooooooooOOOOOOOOOOOOOOOOOOOOOOOOOOOOOOOOoooooooo                                        ",
"                                        ooooooooOOOOOOOOOOOOOOOOOOOOOOOOOOOOOOOOoooooooo                                        ",
"                                        ooooooooOOOOOOOOOOOOOOOOOOOOOOOOOOOOOOOOoooooooo                                        ",
"                                        ooooooooOOOOOOOOOOOOOOOOOOOOOOOOOOOOOOOOoooooooo                                        ",
"                                        ooooooooOOOOOOOOOOOOOOOOOOOOOOOOOOOOOOOOoooooooo                                        ",
"                                        ooooooooOOOOOOOOOOOOOOOOOOOOOOOOOOOOOOOOoooooooo                                        ",
"                                        ooooooooOOOOOOOOOOOOOOOOOOOOOOOOOOOOOOOOoooooooo                                        ",
"                                        ooooooooOOOOOOOOOOOOOOOOOOOOOOOOOOOOOOOOoooooooo                                        ",
"                                        ooooooooOOOOOOOOOOOOOOOOOOOOOOOOOOOOOOOOoooooooo                                        ",
"                                        ........++++++++OOOOOOOOOOOOOOOO++++++++........                                        ",
"                                        ........++++++++OOOOOOOOOOOOOOOO++++++++........                                        ",
"                                        ........++++++++OOOOOOOOOOOOOOOO++++++++........                                        ",
"                                        ........++++++++OOOOOOOOOOOOOOOO++++++++........                                        ",
"                                        ........++++++++OOOOOOOOOOOOOOOO++++++++........                                        ",
"                                        ........++++++++OOOOOOOOOOOOOOOO++++++++........                                        ",
"                                        ........++++++++OOOOOOOOOOOOOOOO++++++++........                                        ",
"                                        ........++++++++OOOOOOOOOOOOOOOO++++++++........                                        ",
"                                        ........++++++++++++++++++++++++++++++++........                                        ",
"                                        ........++++++++++++++++++++++++++++++++........                                        ",
"                                        ........++++++++++++++++++++++++++++++++........                                        ",
"                                        ........++++++++++++++++++++++++++++++++........                                        ",
"                                        ........++++++++++++++++++++++++++++++++........                                        ",
"                                        ........++++++++++++++++++++++++++++++++........                                        ",
"                                        ........++++++++++++++++++++++++++++++++........                                        ",
"                                        ........++++++++++++++++++++++++++++++++........                                        ",
"                                        ........++++++++++++++++++++++++++++++++........                                        ",
"                                        ........++++++++++++++++++++++++++++++++........                                        ",
"                                        ........++++++++++++++++++++++++++++++++........                                        ",
"                                        ........++++++++++++++++++++++++++++++++........                                        ",
"                                        ........++++++++++++++++++++++++++++++++........                                        ",
"                                        ........++++++++++++++++++++++++++++++++........                                        ",
"                                        ........++++++++++++++++++++++++++++++++........                                        ",
"                                        ........++++++++++++++++++++++++++++++++........                                        ",
"                                        ........++++++++................++++++++........        XXXXXXXX                        ",
"                                        ........++++++++................++++++++........        XXXXXXXX                        ",
"                                        ........++++++++................++++++++........        XXXXXXXX                        ",
"                                        ........++++++++................++++++++........        XXXXXXXX                        ",
"                                        ........++++++++................++++++++........        XXXXXXXX                        ",
"                                        ........++++++++................++++++++........        XXXXXXXX                        ",
"                                        ........++++++++................++++++++........        XXXXXXXX                        ",
"                                        ........++++++++................++++++++........        XXXXXXXX                        ",
"                                        ........++++++++................++++++++........XXXXXXXX                                ",
"                                        ........++++++++................++++++++........XXXXXXXX                                ",
"                                        ........++++++++................++++++++........XXXXXXXX                                ",
"                                        ........++++++++................++++++++........XXXXXXXX                                ",
"                                        ........++++++++................++++++++........XXXXXXXX                                ",
"                                        ........++++++++................++++++++........XXXXXXXX                                ",
"                                        ........++++++++................++++++++........XXXXXXXX                                ",
"                                        ........++++++++................++++++++........XXXXXXXX                                ",
"                                        ........oooooooo................oooooooo........                                        ",
"                                        ........oooooooo................oooooooo........                                        ",
"                                        ........oooooooo................oooooooo........                                        ",
"                                        ........oooooooo................oooooooo........                                        ",
"                                        ........oooooooo................oooooooo........                                        ",
"                                        ........oooooooo................oooooooo........                                        ",
"                                        ........oooooooo................oooooooo........                                        ",
"                                        ........oooooooo................oooooooo........                                        ",
"                                        ........oooooooo................oooooooo........                                        ",
"                                        ........oooooooo................oooooooo........                                        ",
"                                        ........oooooooo................oooooooo........                                        ",
"                                        ........oooooooo................oooooooo........                                        ",
"                                        ........oooooooo................oooooooo........                                        ",
"                                        ........oooooooo................oooooooo........                                        ",
"                                        ........oooooooo................oooooooo........                                        ",
"                                        ........oooooooo................oooooooo........                                        ",
"                                XXXXXXXX        oooooooo................oooooooo                                                ",
"                                XXXXXXXX        oooooooo................oooooooo                                                ",
"                                XXXXXXXX        oooooooo................oooooooo                                                ",
"                                XXXXXXXX        oooooooo................oooooooo                                                ",
"                                XXXXXXXX        oooooooo................oooooooo                                                ",
"                                XXXXXXXX        oooooooo................oooooooo                                                ",
"                                XXXXXXXX        oooooooo................oooooooo                                                ",
"                                XXXXXXXX        oooooooo................oooooooo                                                ",
"                                        XXXXXXXX        ................                                                        ",
"                                        XXXXXXXX        ................                                                        ",
"                                        XXXXXXXX        ................                                                        ",
"                                        XXXXXXXX        ................                                                        ",
"                                        XXXXXXXX        ................                                                        ",
"                                        XXXXXXXX        ................                                                        ",
"                                        XXXXXXXX        ................                                                        ",
"                                        XXXXXXXX        ................                                                        ",
"                                                        ................                                                        ",
"                                                        ................                                                        ",
"                                                        ................                                                        ",
"                                                        ................                                                        ",
"                                                        ................                                                        ",
"                                                        ................                                                        ",
"                                                        ................                                                        ",
"                                                        ................                                                        "
};
