/* XPM */
static char *b4f99261794f4289bdf4f0e3f8b6f60fRbCd3Vp6K79HWyAJ[] = {
/* columns rows colors chars-per-pixel */
"128 128 10 1 ",
"  c #C0D470",
". c #694A87",
"X c #A4C263",
"o c #90689F",
"O c #A77BB3",
"+ c #583F83",
"@ c #8A4A70",
"# c #B3C373",
"$ c #9AB367",
"% c #E8B5AC",
/* pixels */
"                                                                                                                                ",
"                                                                                                                                ",
"                                                                                                                                ",
"                                                                                                                                ",
"                                                                                                                                ",
"                                                                                                                                ",
"                                                                                                                                ",
"                                                                                                                                ",
"                                                                                                                                ",
"                                                                                                                                ",
"                                                                                                                                ",
"                                                                                                                                ",
"                                                                                                                                ",
"                                                                                                                                ",
"                                                                                    ....................                        ",
"                                                                                    ....................                        ",
"                XXXXXXXX        XXXXXXXX                                            ....................                        ",
"                XXXXXXXX        XXXXXXXX                                            ....................                        ",
"                XXXXXXXX        XXXXXXXX                                            ....................                        ",
"                XXXXXXXX        XXXXXXXX                                            ....................                        ",
"                XXXXXXXX        XXXXXXXX                                            ....................                        ",
"                XXXXXXXX        XXXXXXXX                                            ....................                        ",
"                XXXXXXXX        XXXXXXXX                                            ....................                        ",
"                XXXXXXXX        XXXXXXXX                                            ....................                        ",
"                        XXXXXXXX                                ..........ooooooooooooooooooooOOOOOOOOOOOOOOOOOOOOO..........   ",
"                        XXXXXXXX                                ..........ooooooooooooooooooooOOOOOOOOOOOOOOOOOOOOO..........   ",
"                        XXXXXXXX                                ..........ooooooooooooooooooooOOOOOOOOOOOOOOOOOOOOO..........   ",
"                        XXXXXXXX                                ..........ooooooooooooooooooooOOOOOOOOOOOOOOOOOOOOO..........   ",
"                        XXXXXXXX                                ..........ooooooooooooooooooooOOOOOOOOOOOOOOOOOOOOO..........   ",
"                        XXXXXXXX                                ..........ooooooooooooooooooooOOOOOOOOOOOOOOOOOOOOO..........   ",
"                        XXXXXXXX                                ..........ooooooooooooooooooooOOOOOOOOOOOOOOOOOOOOO..........   ",
"                        XXXXXXXX                                ..........ooooooooooooooooooooOOOOOOOOOOOOOOOOOOOOO..........   ",
"                                                                ..........ooooooooooooooooooooOOOOOOOOOOOOOOOOOOOOO..........   ",
"                                                                ..........ooooooooooooooooooooOOOOOOOOOOOOOOOOOOOOO..........   ",
"                                                                ..........ooooooooooooooooooooooooooooooooooooooooo++++++++++   ",
"                                                                ..........ooooooooooooooooooooooooooooooooooooooooo++++++++++   ",
"                                                                ..........ooooooooooooooooooooooooooooooooooooooooo++++++++++   ",
"                                                                ..........ooooooooooooooooooooooooooooooooooooooooo++++++++++   ",
"                                                                ..........ooooooooooooooooooooooooooooooooooooooooo++++++++++   ",
"                                                                ..........ooooooooooooooooooooooooooooooooooooooooo++++++++++   ",
"                                                                ..........ooooooooooooooooooooooooooooooooooooooooo++++++++++   ",
"                                                                ..........ooooooooooooooooooooooooooooooooooooooooo++++++++++   ",
"                                                                ..........ooooooooooooooooooooooooooooooooooooooooo++++++++++   ",
"                                                                ..........ooooooooooooooooooooooooooooooooooooooooo++++++++++   ",
"              ..............................                              +++++++++++++++++++++++++++++++++++++++++             ",
"              ..............................                              +++++++++++++++++++++++++++++++++++++++++             ",
"              ..............................                              +++++++++++++++++++++++++++++++++++++++++             ",
"              ..............................                              +++++++++++++++++++++++++++++++++++++++++             ",
"              ..............................                              +++++++++++++++++++++++++++++++++++++++++             ",
"              ..............................                              +++++++++++++++++++++++++++++++++++++++++             ",
"              ..............................                              +++++++++++++++++++++++++++++++++++++++++             ",
"              ..............................                              +++++++++++++++++++++++++++++++++++++++++             ",
"              ..............................                              +++++++++++++++++++++++++++++++++++++++++             ",
"              ..............................                              +++++++++++++++++++++++++++++++++++++++++             ",
"              OOOOOOOOOOOOOOOOOOOOOOOOOOOOOO..........                              @@@@@@@@@@@@@@@@@@@@                        ",
"              OOOOOOOOOOOOOOOOOOOOOOOOOOOOOO..........                              @@@@@@@@@@@@@@@@@@@@                        ",
"              OOOOOOOOOOOOOOOOOOOOOOOOOOOOOO..........                              @@@@@@@@@@@@@@@@@@@@                        ",
"              OOOOOOOOOOOOOOOOOOOOOOOOOOOOOO..........                              @@@@@@@@@@@@@@@@@@@@                        ",
"              OOOOOOOOOOOOOOOOOOOOOOOOOOOOOO..........                              @@@@@@@@@@@@@@@@@@@@                        ",
"              OOOOOOOOOOOOOOOOOOOOOOOOOOOOOO..........                              @@@@@@@@@@@@@@@@@@@@                        ",
"              OOOOOOOOOOOOOOOOOOOOOOOOOOOOOO..........                              @@@@@@@@@@@@@@@@@@@@                        ",
"              OOOOOOOOOOOOOOOOOOOOOOOOOOOOOO..........                              @@@@@@@@@@@@@@@@@@@@                        ",
"              OOOOOOOOOOOOOOOOOOOOOOOOOOOOOO..........                              @@@@@@@@@@@@@@@@@@@@                        ",
"              OOOOOOOOOOOOOOOOOOOOOOOOOOOOOO..........                              @@@@@@@@@@@@@@@@@@@@                        ",
"    ..........ooooooooooOOOOOOOOOOOOOOOOOOOOOOOOOOOOOO..........          ##########@@@@@@@@@@@@@@@@@@@@###########             ",
"    ..........ooooooooooOOOOOOOOOOOOOOOOOOOOOOOOOOOOOO..........          ##########@@@@@@@@@@@@@@@@@@@@###########             ",
"    ..........ooooooooooOOOOOOOOOOOOOOOOOOOOOOOOOOOOOO..........          ##########@@@@@@@@@@@@@@@@@@@@###########             ",
"    ..........ooooooooooOOOOOOOOOOOOOOOOOOOOOOOOOOOOOO..........          ##########@@@@@@@@@@@@@@@@@@@@###########             ",
"    ..........ooooooooooOOOOOOOOOOOOOOOOOOOOOOOOOOOOOO..........          ##########@@@@@@@@@@@@@@@@@@@@###########             ",
"    ..........ooooooooooOOOOOOOOOOOOOOOOOOOOOOOOOOOOOO..........          ##########@@@@@@@@@@@@@@@@@@@@###########             ",
"    ..........ooooooooooOOOOOOOOOOOOOOOOOOOOOOOOOOOOOO..........          ##########@@@@@@@@@@@@@@@@@@@@###########             ",
"    ..........ooooooooooOOOOOOOOOOOOOOOOOOOOOOOOOOOOOO..........          ##########@@@@@@@@@@@@@@@@@@@@###########             ",
"    ..........ooooooooooOOOOOOOOOOOOOOOOOOOOOOOOOOOOOO..........          ######$$$$@@@@@@@@@@@@@@@@@@@@###########             ",
"    ..........ooooooooooOOOOOOOOOOOOOOOOOOOOOOOOOOOOOO..........          ######$$$$@@@@@@@@@@@@@@@@@@@@###########             ",
"    ..........oooooooooooooooooooooooooooooooooooooooo++++++++++                XXXX$$$$########$$$$$$$$                        ",
"    ..........oooooooooooooooooooooooooooooooooooooooo++++++++++                XXXX$$$$########$$$$$$$$                        ",
"    ..........oooooooooooooooooooooooooooooooooooooooo++++++++++                XXXX$$$$########$$$$$$$$                        ",
"    ..........oooooooooooooooooooooooooooooooooooooooo++++++++++                XXXX$$$$########$$$$$$$$                        ",
"    ..........oooooooooooooooooooooooooooooooooooooooo++++++++++                XXXX$$$$########$$$$$$$$                        ",
"    ..........oooooooooooooooooooooooooooooooooooooooo++++++++++                XXXX$$$$########$$$$$$$$                        ",
"    ..........oooooooooooooooooooooooooooooooooooooooo++++++++++                    ####$$$$$$$$########                        ",
"    ..........oooooooooooooooooooooooooooooooooooooooo++++++++++                    ####$$$$$$$$########                        ",
"    ..........oooooooooooooooooooooooooooooooooooooooo++++++++++                    ####$$$$$$$$########                        ",
"    ..........oooooooooooooooooooooooooooooooooooooooo++++++++++                    ####$$$$$$$$########                        ",
"              ++++++++++++++++++++++++++++++++++++++++                                  XXXXXXXX                                ",
"              ++++++++++++++++++++++++++++++++++++++++                                  XXXXXXXX                                ",
"              ++++++++++++++++++++++++++++++++++++++++                                  XXXXXXXX                                ",
"              ++++++++++++++++++++++++++++++++++++++++                                  XXXXXXXX                                ",
"              ++++++++++++++++++++++++++++++++++++++++                                                                          ",
"              ++++++++++++++++++++++++++++++++++++++++                                                                          ",
"              ++++++++++++++++++++++++++++++++++++++++                                                                          ",
"              ++++++++++++++++++++++++++++++++++++++++                                                                          ",
"              ++++++++++++++++++++++++++++++++++++++++                                                                          ",
"              ++++++++++++++++++++++++++++++++++++++++                                                                          ",
"              @@@@@@@@@@%%%%%%%%%%@@@@@@@@@@                                                                                    ",
"              @@@@@@@@@@%%%%%%%%%%@@@@@@@@@@                                                                                    ",
"              @@@@@@@@@@%%%%%%%%%%@@@@@@@@@@                                                                                    ",
"              @@@@@@@@@@%%%%%%%%%%@@@@@@@@@@                                                                                    ",
"              @@@@@@@@@@%%%%%%%%%%@@@@@@@@@@                                                                                    ",
"              @@@@@@@@@@%%%%%%%%%%@@@@@@@@@@                                                                                    ",
"              @@@@@@@@@@%%%%%%%%%%@@@@@@@@@@                                                                                    ",
"              @@@@@@@@@@%%%%%%%%%%@@@@@@@@@@                                                                                    ",
"              @@@@@@@@@@%%%%%%%%%%@@@@@@@@@@                                                                                    ",
"              @@@@@@@@@@%%%%%%%%%%@@@@@@@@@@                                                                                    ",
"              ##################$$$$$$$$####    XXXXXXXX                                                                        ",
"              ##################$$$$$$$$####    XXXXXXXX                                                                        ",
"              ##################$$$$$$$$####    XXXXXXXX                                                                        ",
"              ##################$$$$$$$$####    XXXXXXXX                                                                        ",
"              ##################$$$$$$$$####    XXXXXXXX                                                                        ",
"              ##################$$$$$$$$####    XXXXXXXX                                                                        ",
"              ##################$$$$$$$$####    XXXXXXXX                                                                        ",
"              ##################$$$$$$$$####    XXXXXXXX                                                                        ",
"              ##########################$$$$XXXX                                                                                ",
"              ##########################$$$$XXXX                                                                                ",
"                                        XXXXXXXX                                                                                ",
"                                        XXXXXXXX                                                                                ",
"                                        XXXXXXXX                                                                                ",
"                                        XXXXXXXX                                                                                ",
"                                        XXXXXXXX                                                                                ",
"                                        XXXXXXXX                                                                                ",
"                                                                                                                                ",
"                                                                                                                                ",
"                                                                                                                                ",
"                                                                                                                                ",
"                                                                                                                                ",
"                                                                                                                                ",
"                                                                                                                                ",
"                                                                                                                                "
};
