/* XPM */
static char *_a3f7a512ca446f7adf4f044aa45a8ff0B9h8nHuFzL6CM7t[] = {
/* columns rows colors chars-per-pixel */
"128 128 8 1 ",
"  c #C0D470",
". c #F3F2C0",
"X c #5C4E92",
"o c #A4C263",
"O c #E8B5AC",
"+ c #766DAA",
"@ c #EAE178",
"# c #DDD5DE",
/* pixels */
"                                                                                                                                ",
"                                                                                                                                ",
"                                                                                                                                ",
"                                                                                                                                ",
"                                                                                                                                ",
"                                                                                                                                ",
"                                                                                                                                ",
"                                                                                                                                ",
"                                                                                                                                ",
"                                                                                                                                ",
"                                                                                                                                ",
"                                                                                                                                ",
"                                                                                                                                ",
"                                                                                                                                ",
"                                                      ....................XXXXXXXXXX                                            ",
"                                                      ....................XXXXXXXXXX                                            ",
"                oooooooo        oooooooo              ....................XXXXXXXXXX                                            ",
"                oooooooo        oooooooo              ....................XXXXXXXXXX                                            ",
"                oooooooo        oooooooo              ....................XXXXXXXXXX                                            ",
"                oooooooo        oooooooo              ....................XXXXXXXXXX                                            ",
"                oooooooo        oooooooo              ....................XXXXXXXXXX                                            ",
"                oooooooo        oooooooo              ....................XXXXXXXXXX                                            ",
"                oooooooo        oooooooo              ....................XXXXXXXXXX                                            ",
"                oooooooo        oooooooo              ....................XXXXXXXXXX                                            ",
"                        oooooooo            XXXXXXXXXX..........OOOOOOOOOO..........XXXXXXXXXX                                  ",
"                        oooooooo            XXXXXXXXXX..........OOOOOOOOOO..........XXXXXXXXXX                                  ",
"                        oooooooo            XXXXXXXXXX..........OOOOOOOOOO..........XXXXXXXXXX                                  ",
"                        oooooooo            XXXXXXXXXX..........OOOOOOOOOO..........XXXXXXXXXX                                  ",
"                        oooooooo            XXXXXXXXXX..........OOOOOOOOOO..........XXXXXXXXXX                                  ",
"                        oooooooo            XXXXXXXXXX..........OOOOOOOOOO..........XXXXXXXXXX                                  ",
"                        oooooooo            XXXXXXXXXX..........OOOOOOOOOO..........XXXXXXXXXX                                  ",
"                        oooooooo            XXXXXXXXXX..........OOOOOOOOOO..........XXXXXXXXXX                                  ",
"                                            XXXXXXXXXX..........OOOOOOOOOO..........XXXXXXXXXX                                  ",
"                                            XXXXXXXXXX..........OOOOOOOOOO..........XXXXXXXXXX                                  ",
"                                  XXXXXXXXXX........................................XXXXXXXXXX                                  ",
"                                  XXXXXXXXXX........................................XXXXXXXXXX                                  ",
"                                  XXXXXXXXXX........................................XXXXXXXXXX                                  ",
"                                  XXXXXXXXXX........................................XXXXXXXXXX                                  ",
"                                  XXXXXXXXXX........................................XXXXXXXXXX                                  ",
"                                  XXXXXXXXXX........................................XXXXXXXXXX                                  ",
"                                  XXXXXXXXXX........................................XXXXXXXXXX                                  ",
"                                  XXXXXXXXXX........................................XXXXXXXXXX                                  ",
"                                  XXXXXXXXXX........................................XXXXXXXXXX                                  ",
"                                  XXXXXXXXXX........................................XXXXXXXXXX                                  ",
"                                  XXXXXXXXXX........................................XXXXXXXXXX                                  ",
"                                  XXXXXXXXXX........................................XXXXXXXXXX                                  ",
"                                  XXXXXXXXXX........................................XXXXXXXXXX                                  ",
"                                  XXXXXXXXXX........................................XXXXXXXXXX                                  ",
"                                  XXXXXXXXXX........................................XXXXXXXXXX                                  ",
"                                  XXXXXXXXXX........................................XXXXXXXXXX                                  ",
"                                  XXXXXXXXXX........................................XXXXXXXXXX                                  ",
"                                  XXXXXXXXXX........................................XXXXXXXXXX                                  ",
"                                  XXXXXXXXXX........................................XXXXXXXXXX                                  ",
"                                  XXXXXXXXXX........................................XXXXXXXXXX                                  ",
"                                  ..................................................XXXXXXXXXX                                  ",
"                                  ..................................................XXXXXXXXXX                                  ",
"                                  ..................................................XXXXXXXXXX                                  ",
"                                  ..................................................XXXXXXXXXX                                  ",
"                                  ..................................................XXXXXXXXXX                                  ",
"                                  ..................................................XXXXXXXXXX                                  ",
"                                  ..................................................XXXXXXXXXX                                  ",
"                                  ..................................................XXXXXXXXXX                                  ",
"                                  ..................................................XXXXXXXXXX                                  ",
"                                  ..................................................XXXXXXXXXX                                  ",
"                                  ..................................................XXXXXXXXXX                                  ",
"                                  ..................................................XXXXXXXXXX                                  ",
"                                  ..................................................XXXXXXXXXX                                  ",
"                                  ..................................................XXXXXXXXXX                                  ",
"                                  ..................................................XXXXXXXXXX                                  ",
"                                  ..................................................XXXXXXXXXX                                  ",
"                                  ..................................................XXXXXXXXXX                                  ",
"                                  ..................................................XXXXXXXXXX                                  ",
"                                  ..................................................XXXXXXXXXX  oooooooo                        ",
"                                  ..................................................XXXXXXXXXX  oooooooo                        ",
"                                  XXXXXXXXXX++++++++++++++++++++++++++++++XXXXXXXXXXoooo        oooooooo                        ",
"                                  XXXXXXXXXX++++++++++++++++++++++++++++++XXXXXXXXXXoooo        oooooooo                        ",
"                                  XXXXXXXXXX++++++++++++++++++++++++++++++XXXXXXXXXXoooo        oooooooo                        ",
"                                  XXXXXXXXXX++++++++++++++++++++++++++++++XXXXXXXXXXoooo        oooooooo                        ",
"                                  XXXXXXXXXX++++++++++++++++++++++++++++++XXXXXXXXXXoooo        oooooooo                        ",
"                                  XXXXXXXXXX++++++++++++++++++++++++++++++XXXXXXXXXXoooo        oooooooo                        ",
"                                  XXXXXXXXXX++++++++++++++++++++++++++++++XXXXXXXXXX    oooooooo                                ",
"                                  XXXXXXXXXX++++++++++++++++++++++++++++++XXXXXXXXXX    oooooooo                                ",
"                                  XXXXXXXXXX++++++++++++++++++++++++++++++XXXXXXXXXX    oooooooo                                ",
"                                  XXXXXXXXXX++++++++++++++++++++++++++++++XXXXXXXXXX    oooooooo                                ",
"                                  @@@@@@@@@@++++++++++##########..........XXXXXXXXXX    oooooooo                                ",
"                                  @@@@@@@@@@++++++++++##########..........XXXXXXXXXX    oooooooo                                ",
"                                  @@@@@@@@@@++++++++++##########..........XXXXXXXXXX    oooooooo                                ",
"                                  @@@@@@@@@@++++++++++##########..........XXXXXXXXXX    oooooooo                                ",
"                                  @@@@@@@@@@++++++++++##########..........XXXXXXXXXX                                            ",
"                                  @@@@@@@@@@++++++++++##########..........XXXXXXXXXX                                            ",
"                                  @@@@@@@@@@++++++++++##########..........XXXXXXXXXX                                            ",
"                                  @@@@@@@@@@++++++++++##########..........XXXXXXXXXX                                            ",
"                                  @@@@@@@@@@++++++++++##########..........XXXXXXXXXX                                            ",
"                                  @@@@@@@@@@++++++++++##########..........XXXXXXXXXX                                            ",
"                                  XXXXXXXXXXXXXXXXXXXXXXXXXXXXXX....................XXXXXXXXXX                                  ",
"                                  XXXXXXXXXXXXXXXXXXXXXXXXXXXXXX....................XXXXXXXXXX                                  ",
"                                  XXXXXXXXXXXXXXXXXXXXXXXXXXXXXX....................XXXXXXXXXX                                  ",
"                                  XXXXXXXXXXXXXXXXXXXXXXXXXXXXXX....................XXXXXXXXXX                                  ",
"                                  XXXXXXXXXXXXXXXXXXXXXXXXXXXXXX....................XXXXXXXXXX                                  ",
"                                  XXXXXXXXXXXXXXXXXXXXXXXXXXXXXX....................XXXXXXXXXX                                  ",
"                                  XXXXXXXXXXXXXXXXXXXXXXXXXXXXXX....................XXXXXXXXXX                                  ",
"                                  XXXXXXXXXXXXXXXXXXXXXXXXXXXXXX....................XXXXXXXXXX                                  ",
"                                  XXXXXXXXXXXXXXXXXXXXXXXXXXXXXX....................XXXXXXXXXX                                  ",
"                                  XXXXXXXXXXXXXXXXXXXXXXXXXXXXXX....................XXXXXXXXXX                                  ",
"                                ooXXXXXXXXXXXXXXXXXXXXXXXXXXXXXXXXXXXXXXXX##########XXXXXXXXXX                                  ",
"                                ooXXXXXXXXXXXXXXXXXXXXXXXXXXXXXXXXXXXXXXXX##########XXXXXXXXXX                                  ",
"                                ooXXXXXXXXXXXXXXXXXXXXXXXXXXXXXXXXXXXXXXXX##########XXXXXXXXXX                                  ",
"                                ooXXXXXXXXXXXXXXXXXXXXXXXXXXXXXXXXXXXXXXXX##########XXXXXXXXXX                                  ",
"                                ooXXXXXXXXXXXXXXXXXXXXXXXXXXXXXXXXXXXXXXXX##########XXXXXXXXXX                                  ",
"                                ooXXXXXXXXXXXXXXXXXXXXXXXXXXXXXXXXXXXXXXXX##########XXXXXXXXXX                                  ",
"                                ooXXXXXXXXXXXXXXXXXXXXXXXXXXXXXXXXXXXXXXXX##########XXXXXXXXXX                                  ",
"                                ooXXXXXXXXXXXXXXXXXXXXXXXXXXXXXXXXXXXXXXXX##########XXXXXXXXXX                                  ",
"                                  XXXXXXXXXXXXXXXXXXXXXXXXXXXXXXXXXXXXXXXX##########XXXXXXXXXX                                  ",
"                                  XXXXXXXXXXXXXXXXXXXXXXXXXXXXXXXXXXXXXXXX##########XXXXXXXXXX                                  ",
"                                        oooooooo                                                                                ",
"                                        oooooooo                                                                                ",
"                                        oooooooo                                                                                ",
"                                        oooooooo                                                                                ",
"                                        oooooooo                                                                                ",
"                                        oooooooo                                                                                ",
"                                                                                                                                ",
"                                                                                                                                ",
"                                                                                                                                ",
"                                                                                                                                ",
"                                                                                                                                ",
"                                                                                                                                ",
"                                                                                                                                ",
"                                                                                                                                "
};
