/* XPM */
static char *_2edf13d0bfa4d77804687cd24dd055bOttdfv8mOKJ7YYY3[] = {
/* columns rows colors chars-per-pixel */
"128 128 8 1 ",
"  c #C0D470",
". c #A4C263",
"X c #5C4E92",
"o c #F3F2C0",
"O c #E8B5AC",
"+ c #DDD5DE",
"@ c #766DAA",
"# c #EAE178",
/* pixels */
"                                                                                                                                ",
"                                                                                                                                ",
"                                                                                                                                ",
"                                                                                                                                ",
"                                                                                                                                ",
"                                                                                                                                ",
"                                                                                                                                ",
"                                                                                                                                ",
"                                                                                                                                ",
"                                                                                                                                ",
"                                                                                                                                ",
"                                                                                                                                ",
"                                                                                                                                ",
"                                                                                                                                ",
"                                                                                                                                ",
"                                                                                                                                ",
"                ........        ........                                                                                        ",
"                ........        ........                                                                                        ",
"                ........        ........                                                                                        ",
"                ........    XXXXXXXXXoooooooooooooooooo                 ooooooooooooooooooXXXXXXXXX                             ",
"                ........    XXXXXXXXXoooooooooooooooooo                 ooooooooooooooooooXXXXXXXXX                             ",
"                ........    XXXXXXXXXoooooooooooooooooo                 ooooooooooooooooooXXXXXXXXX                             ",
"                ........    XXXXXXXXXoooooooooooooooooo                 ooooooooooooooooooXXXXXXXXX                             ",
"                ........    XXXXXXXXXoooooooooooooooooo                 ooooooooooooooooooXXXXXXXXX                             ",
"                        ....XXXXXXXXXoooooooooooooooooo                 ooooooooooooooooooXXXXXXXXX                             ",
"                        ....XXXXXXXXXoooooooooooooooooo                 ooooooooooooooooooXXXXXXXXX                             ",
"                        ....XXXXXXXXXoooooooooooooooooo                 ooooooooooooooooooXXXXXXXXX                             ",
"                        ....XXXXXXXXXoooooooooooooooooo                 ooooooooooooooooooXXXXXXXXX                             ",
"                        ....XXXXXXXXXOOOOOOOOOoooooooooXXXXXXXXXXXXXXXXXoooooooooOOOOOOOOOXXXXXXXXX                             ",
"                        ....XXXXXXXXXOOOOOOOOOoooooooooXXXXXXXXXXXXXXXXXoooooooooOOOOOOOOOXXXXXXXXX                             ",
"                        ....XXXXXXXXXOOOOOOOOOoooooooooXXXXXXXXXXXXXXXXXoooooooooOOOOOOOOOXXXXXXXXX                             ",
"                        ....XXXXXXXXXOOOOOOOOOoooooooooXXXXXXXXXXXXXXXXXoooooooooOOOOOOOOOXXXXXXXXX                             ",
"                            XXXXXXXXXOOOOOOOOOoooooooooXXXXXXXXXXXXXXXXXoooooooooOOOOOOOOOXXXXXXXXX                             ",
"                            XXXXXXXXXOOOOOOOOOoooooooooXXXXXXXXXXXXXXXXXoooooooooOOOOOOOOOXXXXXXXXX                             ",
"                            XXXXXXXXXOOOOOOOOOoooooooooXXXXXXXXXXXXXXXXXoooooooooOOOOOOOOOXXXXXXXXX                             ",
"                            XXXXXXXXXOOOOOOOOOoooooooooXXXXXXXXXXXXXXXXXoooooooooOOOOOOOOOXXXXXXXXX                             ",
"                            XXXXXXXXXOOOOOOOOOoooooooooXXXXXXXXXXXXXXXXXoooooooooOOOOOOOOOXXXXXXXXX                             ",
"                            XXXXXXXXXoooooooooooooooooo+++++++++++++++++ooooooooooooooooooXXXXXXXXX                             ",
"                            XXXXXXXXXoooooooooooooooooo+++++++++++++++++ooooooooooooooooooXXXXXXXXX                             ",
"                            XXXXXXXXXoooooooooooooooooo+++++++++++++++++ooooooooooooooooooXXXXXXXXX                             ",
"                            XXXXXXXXXoooooooooooooooooo+++++++++++++++++ooooooooooooooooooXXXXXXXXX                             ",
"                            XXXXXXXXXoooooooooooooooooo+++++++++++++++++ooooooooooooooooooXXXXXXXXX                             ",
"                            XXXXXXXXXoooooooooooooooooo+++++++++++++++++ooooooooooooooooooXXXXXXXXX                             ",
"                            XXXXXXXXXoooooooooooooooooo+++++++++++++++++ooooooooooooooooooXXXXXXXXX                             ",
"                            XXXXXXXXXoooooooooooooooooo+++++++++++++++++ooooooooooooooooooXXXXXXXXX                             ",
"                            XXXXXXXXXoooooooooooooooooo+++++++++++++++++ooooooooooooooooooXXXXXXXXX                             ",
"                            XXXXXXXXXoooooooooooooooooo+++++++++++++++++ooooooooooooooooooXXXXXXXXX                             ",
"                            XXXXXXXXXoooooooooooooooooo+++++++++++++++++ooooooooooooooooooXXXXXXXXX                             ",
"                            XXXXXXXXXoooooooooooooooooo+++++++++++++++++ooooooooooooooooooXXXXXXXXX                             ",
"                            XXXXXXXXXoooooooooooooooooo+++++++++++++++++ooooooooooooooooooXXXXXXXXX                             ",
"                            XXXXXXXXXoooooooooooooooooo+++++++++++++++++ooooooooooooooooooXXXXXXXXX                             ",
"                            XXXXXXXXXoooooooooooooooooo+++++++++++++++++ooooooooooooooooooXXXXXXXXX                             ",
"                            XXXXXXXXXoooooooooooooooooo+++++++++++++++++ooooooooooooooooooXXXXXXXXX                             ",
"                            XXXXXXXXXoooooooooooooooooo+++++++++++++++++ooooooooooooooooooXXXXXXXXX                             ",
"                            XXXXXXXXXoooooooooooooooooo+++++++++++++++++ooooooooooooooooooXXXXXXXXX                             ",
"                            XXXXXXXXXXXXXXXXXXoooooooooooooooooooooooooooooooooooXXXXXXXXXXXXXXXXXX                             ",
"                            XXXXXXXXXXXXXXXXXXoooooooooooooooooooooooooooooooooooXXXXXXXXXXXXXXXXXX                             ",
"                            XXXXXXXXXXXXXXXXXXoooooooooooooooooooooooooooooooooooXXXXXXXXXXXXXXXXXX                             ",
"                            XXXXXXXXXXXXXXXXXXoooooooooooooooooooooooooooooooooooXXXXXXXXXXXXXXXXXX                             ",
"                            XXXXXXXXXXXXXXXXXXoooooooooooooooooooooooooooooooooooXXXXXXXXXXXXXXXXXX                             ",
"                            XXXXXXXXXXXXXXXXXXoooooooooooooooooooooooooooooooooooXXXXXXXXXXXXXXXXXX                             ",
"                            XXXXXXXXXXXXXXXXXXoooooooooooooooooooooooooooooooooooXXXXXXXXXXXXXXXXXX                             ",
"                            XXXXXXXXXXXXXXXXXXoooooooooooooooooooooooooooooooooooXXXXXXXXXXXXXXXXXX                             ",
"                   XXXXXXXXXXXXXXXXXXoooooooooooooooooooooooooooooooooooooooooooooooooooooXXXXXXXXXXXXXXXXXX                    ",
"                   XXXXXXXXXXXXXXXXXXoooooooooooooooooooooooooooooooooooooooooooooooooooooXXXXXXXXXXXXXXXXXX                    ",
"                   XXXXXXXXXXXXXXXXXXoooooooooooooooooooooooooooooooooooooooooooooooooooooXXXXXXXXXXXXXXXXXX                    ",
"                   XXXXXXXXXXXXXXXXXXoooooooooooooooooooooooooooooooooooooooooooooooooooooXXXXXXXXXXXXXXXXXX                    ",
"                   XXXXXXXXXXXXXXXXXXoooooooooooooooooooooooooooooooooooooooooooooooooooooXXXXXXXXXXXXXXXXXX                    ",
"                   XXXXXXXXXXXXXXXXXXoooooooooooooooooooooooooooooooooooooooooooooooooooooXXXXXXXXXXXXXXXXXX                    ",
"                   XXXXXXXXXXXXXXXXXXoooooooooooooooooooooooooooooooooooooooooooooooooooooXXXXXXXXXXXXXXXXXX                    ",
"                   XXXXXXXXXXXXXXXXXXoooooooooooooooooooooooooooooooooooooooooooooooooooooXXXXXXXXXXXXXXXXXX                    ",
"                   XXXXXXXXXXXXXXXXXXoooooooooooooooooooooooooooooooooooooooooooooooooooooXXXXXXXXXXXXXXXXXX                    ",
"                                     XXXXXXXXX@@@@@@@@@@@@@@@@@@@@@@@@@@@@@@@@@@@XXXXXXXXXXXXXXXXXX.....                        ",
"                                     XXXXXXXXX@@@@@@@@@@@@@@@@@@@@@@@@@@@@@@@@@@@XXXXXXXXXXXXXXXXXX.....                        ",
"                                     XXXXXXXXX@@@@@@@@@@@@@@@@@@@@@@@@@@@@@@@@@@@XXXXXXXXXXXXXXXXXX.....                        ",
"                                     XXXXXXXXX@@@@@@@@@@@@@@@@@@@@@@@@@@@@@@@@@@@XXXXXXXXXXXXXXXXXX.....                        ",
"                                     XXXXXXXXX@@@@@@@@@@@@@@@@@@@@@@@@@@@@@@@@@@@XXXXXXXXXXXXXXXXXX.....                        ",
"                                     XXXXXXXXX@@@@@@@@@@@@@@@@@@@@@@@@@@@@@@@@@@@XXXXXXXXXXXXXXXXXX.....                        ",
"                                     XXXXXXXXX@@@@@@@@@@@@@@@@@@@@@@@@@@@@@@@@@@@XXXXXXXXXXXXXXXXXX.....                        ",
"                                     XXXXXXXXX@@@@@@@@@@@@@@@@@@@@@@@@@@@@@@@@@@@XXXXXXXXXXXXXXXXXX.....                        ",
"                                     XXXXXXXXX@@@@@@@@@@@@@@@@@@@@@@@@@@@@@@@@@@@XXXXXXXXXXXXXXXXXX                             ",
"                                     XXXXXXXXX@@@@@@@@@########ooooooooo@@@@@@@@@oooooooooXXXXXXXXX                             ",
"                                     XXXXXXXXX@@@@@@@@@########ooooooooo@@@@@@@@@oooooooooXXXXXXXXX                             ",
"                                     XXXXXXXXX@@@@@@@@@########ooooooooo@@@@@@@@@oooooooooXXXXXXXXX                             ",
"                                     XXXXXXXXX@@@@@@@@@########ooooooooo@@@@@@@@@oooooooooXXXXXXXXX                             ",
"                                     XXXXXXXXX@@@@@@@@@########ooooooooo@@@@@@@@@oooooooooXXXXXXXXX                             ",
"                                     XXXXXXXXX@@@@@@@@@########ooooooooo@@@@@@@@@oooooooooXXXXXXXXX                             ",
"                                     XXXXXXXXX@@@@@@@@@########ooooooooo@@@@@@@@@oooooooooXXXXXXXXX                             ",
"                                     XXXXXXXXX@@@@@@@@@########ooooooooo@@@@@@@@@oooooooooXXXXXXXXX                             ",
"                                     XXXXXXXXX@@@@@@@@@########ooooooooo@@@@@@@@@oooooooooXXXXXXXXX                             ",
"                            XXXXXXXXXoooooooooXXXXXXXXXooooooooooooooooooooooooooXXXXXXXXX                                      ",
"                            XXXXXXXXXoooooooooXXXXXXXXXooooooooooooooooooooooooooXXXXXXXXX                                      ",
"                            XXXXXXXXXoooooooooXXXXXXXXXooooooooooooooooooooooooooXXXXXXXXX                                      ",
"                            XXXXXXXXXoooooooooXXXXXXXXXooooooooooooooooooooooooooXXXXXXXXX                                      ",
"                            XXXXXXXXXoooooooooXXXXXXXXXooooooooooooooooooooooooooXXXXXXXXX                                      ",
"                            XXXXXXXXXoooooooooXXXXXXXXXooooooooooooooooooooooooooXXXXXXXXX                                      ",
"                            XXXXXXXXXoooooooooXXXXXXXXXooooooooooooooooooooooooooXXXXXXXXX                                      ",
"                            XXXXXXXXXoooooooooXXXXXXXXXooooooooooooooooooooooooooXXXXXXXXX                                      ",
"                            XXXXXXXXXoooooooooXXXXXXXXXooooooooooooooooooooooooooXXXXXXXXX                                      ",
"                            XXXXXXXXXXXXXXXXXXXXXXXXXXXXXXXXXXXXXXXXXXXX+++++++++XXXXXXXXX                                      ",
"                            XXXXXXXXXXXXXXXXXXXXXXXXXXXXXXXXXXXXXXXXXXXX+++++++++XXXXXXXXX                                      ",
"                            XXXXXXXXXXXXXXXXXXXXXXXXXXXXXXXXXXXXXXXXXXXX+++++++++XXXXXXXXX                                      ",
"                            XXXXXXXXXXXXXXXXXXXXXXXXXXXXXXXXXXXXXXXXXXXX+++++++++XXXXXXXXX                                      ",
"                            XXXXXXXXXXXXXXXXXXXXXXXXXXXXXXXXXXXXXXXXXXXX+++++++++XXXXXXXXX                                      ",
"                            XXXXXXXXXXXXXXXXXXXXXXXXXXXXXXXXXXXXXXXXXXXX+++++++++XXXXXXXXX                                      ",
"                            XXXXXXXXXXXXXXXXXXXXXXXXXXXXXXXXXXXXXXXXXXXX+++++++++XXXXXXXXX                                      ",
"                            XXXXXXXXXXXXXXXXXXXXXXXXXXXXXXXXXXXXXXXXXXXX+++++++++XXXXXXXXX                                      ",
"                            XXXXXXXXXXXXXXXXXXXXXXXXXXXXXXXXXXXXXXXXXXXX+++++++++XXXXXXXXX                                      ",
"                                ........        ........                                                                        ",
"                                ........        ........                                                                        ",
"                                ........        ........                                                                        ",
"                                ........        ........                                                                        ",
"                                        ........                                                                                ",
"                                        ........                                                                                ",
"                                        ........                                                                                ",
"                                        ........                                                                                ",
"                                        ........                                                                                ",
"                                        ........                                                                                ",
"                                        ........                                                                                ",
"                                        ........                                                                                ",
"                                                                                                                                ",
"                                                                                                                                ",
"                                                                                                                                ",
"                                                                                                                                ",
"                                                                                                                                ",
"                                                                                                                                ",
"                                                                                                                                ",
"                                                                                                                                "
};
