/* XPM */
static char *cb55077619804098e7f7fd0887eae85dG7TPlcd66eI8dgXh[] = {
/* columns rows colors chars-per-pixel */
"128 128 8 1 ",
"  c #C0D470",
". c #5C4E92",
"X c #F3F2C0",
"o c #A4C263",
"O c #E8B5AC",
"+ c #766DAA",
"@ c #DDD5DE",
"# c #EAE178",
/* pixels */
"                                                                                                                                ",
"                                                                                                                                ",
"                                                                                                                                ",
"                                                                                                                                ",
"                                                                                                                                ",
"                                                                                                                                ",
"                                                                                                                                ",
"                                                                                                                                ",
"                                                                                                                                ",
"                                                                                                                                ",
"                                                                                                                                ",
"                                                                                                                                ",
"                                                                                                                                ",
"                                                                                                                                ",
"                                            ..........XXXXXXXXXXXXXXXXXXXX                                                      ",
"                                            ..........XXXXXXXXXXXXXXXXXXXX                                                      ",
"                oooooooo        oooooooo    ..........XXXXXXXXXXXXXXXXXXXX                                                      ",
"                oooooooo        oooooooo    ..........XXXXXXXXXXXXXXXXXXXX                                                      ",
"                oooooooo        oooooooo    ..........XXXXXXXXXXXXXXXXXXXX                                                      ",
"                oooooooo        oooooooo    ..........XXXXXXXXXXXXXXXXXXXX                                                      ",
"                oooooooo        oooooooo    ..........XXXXXXXXXXXXXXXXXXXX                                                      ",
"                oooooooo        oooooooo    ..........XXXXXXXXXXXXXXXXXXXX                                                      ",
"                oooooooo        oooooooo    ..........XXXXXXXXXXXXXXXXXXXX                                                      ",
"                oooooooo        oooooooo    ..........XXXXXXXXXXXXXXXXXXXX                                                      ",
"                        oooooooo  ..........XXXXXXXXXXOOOOOOOOOOXXXXXXXXXX..........                                            ",
"                        oooooooo  ..........XXXXXXXXXXOOOOOOOOOOXXXXXXXXXX..........                                            ",
"                        oooooooo  ..........XXXXXXXXXXOOOOOOOOOOXXXXXXXXXX..........                                            ",
"                        oooooooo  ..........XXXXXXXXXXOOOOOOOOOOXXXXXXXXXX..........                                            ",
"                        oooooooo  ..........XXXXXXXXXXOOOOOOOOOOXXXXXXXXXX..........                                            ",
"                        oooooooo  ..........XXXXXXXXXXOOOOOOOOOOXXXXXXXXXX..........                                            ",
"                        oooooooo  ..........XXXXXXXXXXOOOOOOOOOOXXXXXXXXXX..........                                            ",
"                        oooooooo  ..........XXXXXXXXXXOOOOOOOOOOXXXXXXXXXX..........                                            ",
"                                  ..........XXXXXXXXXXOOOOOOOOOOXXXXXXXXXX..........                                            ",
"                                  ..........XXXXXXXXXXOOOOOOOOOOXXXXXXXXXX..........                                            ",
"                                  ..........XXXXXXXXXXXXXXXXXXXXXXXXXXXXXXXXXXXXXXXX..........                                  ",
"                                  ..........XXXXXXXXXXXXXXXXXXXXXXXXXXXXXXXXXXXXXXXX..........                                  ",
"                                  ..........XXXXXXXXXXXXXXXXXXXXXXXXXXXXXXXXXXXXXXXX..........                                  ",
"                                  ..........XXXXXXXXXXXXXXXXXXXXXXXXXXXXXXXXXXXXXXXX..........                                  ",
"                                  ..........XXXXXXXXXXXXXXXXXXXXXXXXXXXXXXXXXXXXXXXX..........                                  ",
"                                  ..........XXXXXXXXXXXXXXXXXXXXXXXXXXXXXXXXXXXXXXXX..........                                  ",
"                                  ..........XXXXXXXXXXXXXXXXXXXXXXXXXXXXXXXXXXXXXXXX..........                                  ",
"                                  ..........XXXXXXXXXXXXXXXXXXXXXXXXXXXXXXXXXXXXXXXX..........                                  ",
"                                  ..........XXXXXXXXXXXXXXXXXXXXXXXXXXXXXXXXXXXXXXXX..........                                  ",
"                                  ..........XXXXXXXXXXXXXXXXXXXXXXXXXXXXXXXXXXXXXXXX..........                                  ",
"                                  ..........XXXXXXXXXXXXXXXXXXXXXXXXXXXXXXXXXXXXXXXX..........                                  ",
"                                  ..........XXXXXXXXXXXXXXXXXXXXXXXXXXXXXXXXXXXXXXXX..........                                  ",
"                                  ..........XXXXXXXXXXXXXXXXXXXXXXXXXXXXXXXXXXXXXXXX..........                                  ",
"                                  ..........XXXXXXXXXXXXXXXXXXXXXXXXXXXXXXXXXXXXXXXX..........                                  ",
"                                  ..........XXXXXXXXXXXXXXXXXXXXXXXXXXXXXXXXXXXXXXXX..........                                  ",
"                                  ..........XXXXXXXXXXXXXXXXXXXXXXXXXXXXXXXXXXXXXXXX..........                                  ",
"                                  ..........XXXXXXXXXXXXXXXXXXXXXXXXXXXXXXXXXXXXXXXX..........                                  ",
"                                  ..........XXXXXXXXXXXXXXXXXXXXXXXXXXXXXXXXXXXXXXXX..........                                  ",
"                                  ..........XXXXXXXXXXXXXXXXXXXXXXXXXXXXXXXXXXXXXXXX..........                                  ",
"                                  ..........XXXXXXXXXXXXXXXXXXXXXXXXXXXXXXXXXXXXXXXX..........                                  ",
"                                  ..........XXXXXXXXXXXXXXXXXXXXXXXXXXXXXXXXXXXXXXXXXXXXXXXXXX                                  ",
"                                  ..........XXXXXXXXXXXXXXXXXXXXXXXXXXXXXXXXXXXXXXXXXXXXXXXXXX                                  ",
"                                  ..........XXXXXXXXXXXXXXXXXXXXXXXXXXXXXXXXXXXXXXXXXXXXXXXXXX                                  ",
"                                  ..........XXXXXXXXXXXXXXXXXXXXXXXXXXXXXXXXXXXXXXXXXXXXXXXXXX                                  ",
"                                  ..........XXXXXXXXXXXXXXXXXXXXXXXXXXXXXXXXXXXXXXXXXXXXXXXXXX                                  ",
"                                  ..........XXXXXXXXXXXXXXXXXXXXXXXXXXXXXXXXXXXXXXXXXXXXXXXXXX                                  ",
"                                  ..........XXXXXXXXXXXXXXXXXXXXXXXXXXXXXXXXXXXXXXXXXXXXXXXXXX                                  ",
"                                  ..........XXXXXXXXXXXXXXXXXXXXXXXXXXXXXXXXXXXXXXXXXXXXXXXXXX                                  ",
"                                  ..........XXXXXXXXXXXXXXXXXXXXXXXXXXXXXXXXXXXXXXXXXXXXXXXXXX                                  ",
"                                  ..........XXXXXXXXXXXXXXXXXXXXXXXXXXXXXXXXXXXXXXXXXXXXXXXXXX                                  ",
"                                  ..........XXXXXXXXXXXXXXXXXXXXXXXXXXXXXXXXXXXXXXXXXXXXXXXXXX                                  ",
"                                  ..........XXXXXXXXXXXXXXXXXXXXXXXXXXXXXXXXXXXXXXXXXXXXXXXXXX                                  ",
"                                  ..........XXXXXXXXXXXXXXXXXXXXXXXXXXXXXXXXXXXXXXXXXXXXXXXXXX                                  ",
"                                  ..........XXXXXXXXXXXXXXXXXXXXXXXXXXXXXXXXXXXXXXXXXXXXXXXXXX                                  ",
"                                  ..........XXXXXXXXXXXXXXXXXXXXXXXXXXXXXXXXXXXXXXXXXXXXXXXXXX                                  ",
"                                  ..........XXXXXXXXXXXXXXXXXXXXXXXXXXXXXXXXXXXXXXXXXXXXXXXXXX                                  ",
"                                  ..........XXXXXXXXXXXXXXXXXXXXXXXXXXXXXXXXXXXXXXXXXXXXXXXXXX                                  ",
"                                  ..........XXXXXXXXXXXXXXXXXXXXXXXXXXXXXXXXXXXXXXXXXXXXXXXXXX                                  ",
"                                  ..........XXXXXXXXXXXXXXXXXXXXXXXXXXXXXXXXXXXXXXXXXXXXXXXXXX  oooooooo                        ",
"                                  ..........XXXXXXXXXXXXXXXXXXXXXXXXXXXXXXXXXXXXXXXXXXXXXXXXXX  oooooooo                        ",
"                                            ..........++++++++++++++++++++++++++++++..........  oooooooo                        ",
"                                            ..........++++++++++++++++++++++++++++++..........  oooooooo                        ",
"                                            ..........++++++++++++++++++++++++++++++..........  oooooooo                        ",
"                                            ..........++++++++++++++++++++++++++++++..........  oooooooo                        ",
"                                            ..........++++++++++++++++++++++++++++++..........  oooooooo                        ",
"                                            ..........++++++++++++++++++++++++++++++..........  oooooooo                        ",
"                                            ..........++++++++++++++++++++++++++++++..........oo                                ",
"                                            ..........++++++++++++++++++++++++++++++..........oo                                ",
"                                            ..........++++++++++++++++++++++++++++++..........oo                                ",
"                                            ..........++++++++++++++++++++++++++++++..........oo                                ",
"                                            ..........XXXXXXXXXX@@@@@@@@@@++++++++++##########oo                                ",
"                                            ..........XXXXXXXXXX@@@@@@@@@@++++++++++##########oo                                ",
"                                            ..........XXXXXXXXXX@@@@@@@@@@++++++++++##########oo                                ",
"                                            ..........XXXXXXXXXX@@@@@@@@@@++++++++++##########oo                                ",
"                                            ..........XXXXXXXXXX@@@@@@@@@@++++++++++##########                                  ",
"                                            ..........XXXXXXXXXX@@@@@@@@@@++++++++++##########                                  ",
"                                            ..........XXXXXXXXXX@@@@@@@@@@++++++++++##########                                  ",
"                                            ..........XXXXXXXXXX@@@@@@@@@@++++++++++##########                                  ",
"                                            ..........XXXXXXXXXX@@@@@@@@@@++++++++++##########                                  ",
"                                            ..........XXXXXXXXXX@@@@@@@@@@++++++++++##########                                  ",
"                                  ..........XXXXXXXXXXXXXXXXXXXX..............................                                  ",
"                                  ..........XXXXXXXXXXXXXXXXXXXX..............................                                  ",
"                                  ..........XXXXXXXXXXXXXXXXXXXX..............................                                  ",
"                                  ..........XXXXXXXXXXXXXXXXXXXX..............................                                  ",
"                                  ..........XXXXXXXXXXXXXXXXXXXX..............................                                  ",
"                                  ..........XXXXXXXXXXXXXXXXXXXX..............................                                  ",
"                                  ..........XXXXXXXXXXXXXXXXXXXX..............................                                  ",
"                                  ..........XXXXXXXXXXXXXXXXXXXX..............................                                  ",
"                                  ..........XXXXXXXXXXXXXXXXXXXX..............................                                  ",
"                                  ..........XXXXXXXXXXXXXXXXXXXX..............................                                  ",
"                                oo..........@@@@@@@@@@........................................                                  ",
"                                oo..........@@@@@@@@@@........................................                                  ",
"                                oo..........@@@@@@@@@@........................................                                  ",
"                                oo..........@@@@@@@@@@........................................                                  ",
"                                oo..........@@@@@@@@@@........................................                                  ",
"                                oo..........@@@@@@@@@@........................................                                  ",
"                                oo..........@@@@@@@@@@........................................                                  ",
"                                oo..........@@@@@@@@@@........................................                                  ",
"                                  ..........@@@@@@@@@@........................................                                  ",
"                                  ..........@@@@@@@@@@........................................                                  ",
"                                        oooooooo                                                                                ",
"                                        oooooooo                                                                                ",
"                                        oooooooo                                                                                ",
"                                        oooooooo                                                                                ",
"                                        oooooooo                                                                                ",
"                                        oooooooo                                                                                ",
"                                                                                                                                ",
"                                                                                                                                ",
"                                                                                                                                ",
"                                                                                                                                ",
"                                                                                                                                ",
"                                                                                                                                ",
"                                                                                                                                ",
"                                                                                                                                "
};
