/* XPM */
static char *f6d3ed4c8bf24c66ca16b0eceb283ef3tBGWyDfSiJhFz0fT[] = {
/* columns rows colors chars-per-pixel */
"128 128 6 1 ",
"  c #C0D470",
". c #5C4E92",
"X c #F3F2C0",
"o c #A4C263",
"O c #766DAA",
"+ c #DDD5DE",
/* pixels */
"                                                                                                                                ",
"                                                                                                                                ",
"                                                                                                                                ",
"                                                                                                                                ",
"                                                                                                                                ",
"                                                                                                                                ",
"                                                                                                                                ",
"                                                                                                                                ",
"                                                                                                                                ",
"                                                                                                                                ",
"                                                                                                                                ",
"                                                                                                                                ",
"                                                                                                                                ",
"                                                                                                                                ",
"                         .........XXXXXXXXXXXXXXXXXXXX                    XXXXXXXXXXXXXXXXXXXX...........                       ",
"                         .........XXXXXXXXXXXXXXXXXXXX                    XXXXXXXXXXXXXXXXXXXX...........                       ",
"                oooooooo .........XXXXXXXXXXXXXXXXXXXX                    XXXXXXXXXXXXXXXXXXXX...........                       ",
"                oooooooo .........XXXXXXXXXXXXXXXXXXXX                    XXXXXXXXXXXXXXXXXXXX...........                       ",
"                oooooooo .........XXXXXXXXXXXXXXXXXXXX                    XXXXXXXXXXXXXXXXXXXX...........                       ",
"                oooooooo .........XXXXXXXXXXXXXXXXXXXX                    XXXXXXXXXXXXXXXXXXXX...........                       ",
"                oooooooo .........XXXXXXXXXXXXXXXXXXXX                    XXXXXXXXXXXXXXXXXXXX...........                       ",
"                oooooooo .........XXXXXXXXXXXXXXXXXXXX                    XXXXXXXXXXXXXXXXXXXX...........                       ",
"                oooooooo .........XXXXXXXXXXXXXXXXXXXX                    XXXXXXXXXXXXXXXXXXXX...........                       ",
"                oooooooo .........XXXXXXXXXXXXXXXXXXXX....................XXXXXXXXXXXXXXXXXXXX...........                       ",
"                        o.........XXXXXXXXXXXXXXXXXXXX....................XXXXXXXXXXXXXXXXXXXX...........                       ",
"                        o.........XXXXXXXXXXXXXXXXXXXX....................XXXXXXXXXXXXXXXXXXXX...........                       ",
"                        o.........XXXXXXXXXXXXXXXXXXXX....................XXXXXXXXXXXXXXXXXXXX...........                       ",
"                        o.........XXXXXXXXXXXXXXXXXXXX....................XXXXXXXXXXXXXXXXXXXX...........                       ",
"                        o.........XXXXXXXXXXXXXXXXXXXX....................XXXXXXXXXXXXXXXXXXXX...........                       ",
"                        o.........XXXXXXXXXXXXXXXXXXXX....................XXXXXXXXXXXXXXXXXXXX...........                       ",
"                        o.........XXXXXXXXXXXXXXXXXXXX....................XXXXXXXXXXXXXXXXXXXX...........                       ",
"                        o.........XXXXXXXXXXXXXXXXXXXX....................XXXXXXXXXXXXXXXXXXXX...........                       ",
"                         .........XXXXXXXXXXXXXXXXXXXX....................XXXXXXXXXXXXXXXXXXXX...........                       ",
"                         .........XXXXXXXXXXXXXXXXXXXX....................XXXXXXXXXXXXXXXXXXXX...........                       ",
"                         .........XXXXXXXXXXXXXXXXXXXXXXXXXXXXXXXXXXXXXXXXXXXXXXXXXXXXXXXXXXXX...........                       ",
"                         .........XXXXXXXXXXXXXXXXXXXXXXXXXXXXXXXXXXXXXXXXXXXXXXXXXXXXXXXXXXXX...........                       ",
"                         .........XXXXXXXXXXXXXXXXXXXXXXXXXXXXXXXXXXXXXXXXXXXXXXXXXXXXXXXXXXXX...........                       ",
"                         .........XXXXXXXXXXXXXXXXXXXXXXXXXXXXXXXXXXXXXXXXXXXXXXXXXXXXXXXXXXXX...........                       ",
"                         .........XXXXXXXXXXXXXXXXXXXXXXXXXXXXXXXXXXXXXXXXXXXXXXXXXXXXXXXXXXXX...........                       ",
"                         .........XXXXXXXXXXXXXXXXXXXXXXXXXXXXXXXXXXXXXXXXXXXXXXXXXXXXXXXXXXXX...........                       ",
"                         .........XXXXXXXXXXXXXXXXXXXXXXXXXXXXXXXXXXXXXXXXXXXXXXXXXXXXXXXXXXXX...........                       ",
"                         .........XXXXXXXXXXXXXXXXXXXXXXXXXXXXXXXXXXXXXXXXXXXXXXXXXXXXXXXXXXXX...........                       ",
"                         .........XXXXXXXXXXXXXXXXXXXXXXXXXXXXXXXXXXXXXXXXXXXXXXXXXXXXXXXXXXXX...........                       ",
"                         .........XXXXXXXXXXXXXXXXXXXXXXXXXXXXXXXXXXXXXXXXXXXXXXXXXXXXXXXXXXXX...........                       ",
"                         .........XXXXXXXXXXXXXXXXXXXXXXXXXXXXXXXXXXXXXXXXXXXXXXXXXXXXXXXXXXXX...........                       ",
"                         .........XXXXXXXXXXXXXXXXXXXXXXXXXXXXXXXXXXXXXXXXXXXXXXXXXXXXXXXXXXXX...........                       ",
"                         .........XXXXXXXXXXXXXXXXXXXXXXXXXXXXXXXXXXXXXXXXXXXXXXXXXXXXXXXXXXXX...........                       ",
"                         .........XXXXXXXXXXXXXXXXXXXXXXXXXXXXXXXXXXXXXXXXXXXXXXXXXXXXXXXXXXXX...........                       ",
"                         .........XXXXXXXXXXXXXXXXXXXXXXXXXXXXXXXXXXXXXXXXXXXXXXXXXXXXXXXXXXXX...........                       ",
"                         .........XXXXXXXXXXXXXXXXXXXXXXXXXXXXXXXXXXXXXXXXXXXXXXXXXXXXXXXXXXXX...........                       ",
"                         .........XXXXXXXXXXXXXXXXXXXXXXXXXXXXXXXXXXXXXXXXXXXXXXXXXXXXXXXXXXXX...........                       ",
"                         .........XXXXXXXXXXXXXXXXXXXXXXXXXXXXXXXXXXXXXXXXXXXXXXXXXXXXXXXXXXXX...........                       ",
"                         .........XXXXXXXXXXXXXXXXXXXXXXXXXXXXXXXXXXXXXXXXXXXXXXXXXXXXXXXXXXXX...........                       ",
"                         .........XXXXXXXXXXXXXXXXXXXXXXXXXXXXXXXXXXXXXXXXXXXXXXXXXXXXXXXXXXXX...........                       ",
"                         .........XXXXXXXXXXXXXXXXXXXXXXXXXXXXXXXXXXXXXXXXXXXXXXXXXXXXXXXXXXXX...........                       ",
"                         .........XXXXXXXXXXXXXXXXXXXXXXXXXXXXXXXXXXXXXXXXXXXXXXXXXXXXXXXXXXXX...........                       ",
"                         .........XXXXXXXXXXXXXXXXXXXXXXXXXXXXXXXXXXXXXXXXXXXXXXXXXXXXXXXXXXXX...........                       ",
"                         .........XXXXXXXXXXXXXXXXXXXXXXXXXXXXXXXXXXXXXXXXXXXXXXXXXXXXXXXXXXXX...........                       ",
"                         .........XXXXXXXXXXXXXXXXXXXXXXXXXXXXXXXXXXXXXXXXXXXXXXXXXXXXXXXXXXXX...........                       ",
"                         .........XXXXXXXXXXXXXXXXXXXXXXXXXXXXXXXXXXXXXXXXXXXXXXXXXXXXXXXXXXXX...........                       ",
"                         .........XXXXXXXXXXXXXXXXXXXXXXXXXXXXXXXXXXXXXXXXXXXXXXXXXXXXXXXXXXXX...........                       ",
"                         .........XXXXXXXXXXXXXXXXXXXXXXXXXXXXXXXXXXXXXXXXXXXXXXXXXXXXXXXXXXXX...........                       ",
"                         .........XXXXXXXXXXXXXXXXXXXXXXXXXXXXXXXXXXXXXXXXXXXXXXXXXXXXXXXXXXXX...........                       ",
"              ....................XXXXXXXXXXXXXXXXXXXXXXXXXXXXXXXXXXXXXXXXXXXXXXXXXXXXXXXXXXXX....................              ",
"              ....................XXXXXXXXXXXXXXXXXXXXXXXXXXXXXXXXXXXXXXXXXXXXXXXXXXXXXXXXXXXX....................              ",
"              ....................XXXXXXXXXXXXXXXXXXXXXXXXXXXXXXXXXXXXXXXXXXXXXXXXXXXXXXXXXXXX....................              ",
"              ....................XXXXXXXXXXXXXXXXXXXXXXXXXXXXXXXXXXXXXXXXXXXXXXXXXXXXXXXXXXXX....................              ",
"              ....................XXXXXXXXXXXXXXXXXXXXXXXXXXXXXXXXXXXXXXXXXXXXXXXXXXXXXXXXXXXX....................              ",
"              ....................XXXXXXXXXXXXXXXXXXXXXXXXXXXXXXXXXXXXXXXXXXXXXXXXXXXXXXXXXXXX....................              ",
"              ....................XXXXXXXXXXXXXXXXXXXXXXXXXXXXXXXXXXXXXXXXXXXXXXXXXXXXXXXXXXXX....................              ",
"              ....................XXXXXXXXXXXXXXXXXXXXXXXXXXXXXXXXXXXXXXXXXXXXXXXXXXXXXXXXXXXX....................              ",
"              ....................XXXXXXXXXXXXXXXXXXXXXXXXXXXXXXXXXXXXXXXXXXXXXXXXXXXXXXXXXXXX....................              ",
"              ....................XXXXXXXXXXXXXXXXXXXXXXXXXXXXXXXXXXXXXXXXXXXXXXXXXXXXXXXXXXXX....................              ",
"              ....................XXXXXXXXXXXXXXXXXXXXXXXXXXXXXXXXXXXXXXXXXXXXXXXXXXXXXXXXXXXX....................              ",
"                         ....................OOOOOOOOOOOOOOOOOOOOOOOOOOOOOOOOOOOOOOOO.........  oooooooo                        ",
"                         ....................OOOOOOOOOOOOOOOOOOOOOOOOOOOOOOOOOOOOOOOO.........  oooooooo                        ",
"                         ....................OOOOOOOOOOOOOOOOOOOOOOOOOOOOOOOOOOOOOOOO.........  oooooooo                        ",
"                         ....................OOOOOOOOOOOOOOOOOOOOOOOOOOOOOOOOOOOOOOOO.........  oooooooo                        ",
"                         ....................OOOOOOOOOOOOOOOOOOOOOOOOOOOOOOOOOOOOOOOO.........  oooooooo                        ",
"                         ....................OOOOOOOOOOOOOOOOOOOOOOOOOOOOOOOOOOOOOOOO.........  oooooooo                        ",
"                         ....................OOOOOOOOOOOOOOOOOOOOOOOOOOOOOOOOOOOOOOOO.........oo                                ",
"                         ....................OOOOOOOOOOOOOOOOOOOOOOOOOOOOOOOOOOOOOOOO.........oo                                ",
"                         ....................OOOOOOOOOOOOOOOOOOOOOOOOOOOOOOOOOOOOOOOO.........oo                                ",
"                         .........XXXXXXXXXXXOOOOOOOOO....................OOOOOOOOOOO.........oo                                ",
"                         .........XXXXXXXXXXXOOOOOOOOO....................OOOOOOOOOOO.........oo                                ",
"                         .........XXXXXXXXXXXOOOOOOOOO....................OOOOOOOOOOO.........oo                                ",
"                         .........XXXXXXXXXXXOOOOOOOOO....................OOOOOOOOOOO.........oo                                ",
"                         .........XXXXXXXXXXXOOOOOOOOO....................OOOOOOOOOOO.........oo                                ",
"                         .........XXXXXXXXXXXOOOOOOOOO....................OOOOOOOOOOO.........                                  ",
"                         .........XXXXXXXXXXXOOOOOOOOO....................OOOOOOOOOOO.........                                  ",
"                         .........XXXXXXXXXXXOOOOOOOOO....................OOOOOOOOOOO.........                                  ",
"                         .........XXXXXXXXXXXOOOOOOOOO....................OOOOOOOOOOO.........                                  ",
"                         .........XXXXXXXXXXXOOOOOOOOO....................OOOOOOOOOOO.........                                  ",
"                         .........XXXXXXXXXXXOOOOOOOOO....................OOOOOOOOOOO.........                                  ",
"                                  ...........XXXXXXXXXXXXXXXXXXXXXXXXXXXXX...........XXXXXXXXX...........                       ",
"                                  ...........XXXXXXXXXXXXXXXXXXXXXXXXXXXXX...........XXXXXXXXX...........                       ",
"                                  ...........XXXXXXXXXXXXXXXXXXXXXXXXXXXXX...........XXXXXXXXX...........                       ",
"                                  ...........XXXXXXXXXXXXXXXXXXXXXXXXXXXXX...........XXXXXXXXX...........                       ",
"                                  ...........XXXXXXXXXXXXXXXXXXXXXXXXXXXXX...........XXXXXXXXX...........                       ",
"                                  ...........XXXXXXXXXXXXXXXXXXXXXXXXXXXXX...........XXXXXXXXX...........                       ",
"                                  ...........XXXXXXXXXXXXXXXXXXXXXXXXXXXXX...........XXXXXXXXX...........                       ",
"                                  ...........XXXXXXXXXXXXXXXXXXXXXXXXXXXXX...........XXXXXXXXX...........                       ",
"                                  ...........XXXXXXXXXXXXXXXXXXXXXXXXXXXXX...........XXXXXXXXX...........                       ",
"                                  ...........+++++++++...................................................                       ",
"                                oo...........+++++++++...................................................                       ",
"                                oo...........+++++++++...................................................                       ",
"                                oo...........+++++++++...................................................                       ",
"                                oo...........+++++++++...................................................                       ",
"                                oo...........+++++++++...................................................                       ",
"                                oo...........+++++++++...................................................                       ",
"                                oo...........+++++++++...................................................                       ",
"                                oo...........+++++++++...................................................                       ",
"                                  ...........+++++++++...................................................                       ",
"                                  ...........+++++++++...................................................                       ",
"                                        oooooooo                                                                                ",
"                                        oooooooo                                                                                ",
"                                        oooooooo                                                                                ",
"                                        oooooooo                                                                                ",
"                                        oooooooo                                                                                ",
"                                        oooooooo                                                                                ",
"                                                                                                                                ",
"                                                                                                                                ",
"                                                                                                                                ",
"                                                                                                                                ",
"                                                                                                                                ",
"                                                                                                                                ",
"                                                                                                                                ",
"                                                                                                                                "
};
