/* XPM */
static char *_245bbf270d742baa4848b31932e605b[] = {
/* columns rows colors chars-per-pixel */
"128 128 52 1 ",
"  c #C0D470",
". c #ADBF70",
"X c #A4B470",
"o c #A4C263",
"O c #97B166",
"+ c #879470",
"@ c #9BA491",
"# c #A4ACA1",
"$ c #7E8E6C",
"% c #919C80",
"& c #B7BFB1",
"* c #C1C8B9",
"= c #9AA970",
"- c #9CA59A",
"; c #96A094",
": c #A9B3A4",
"> c #B9C1B2",
", c #969F95",
"< c #545959",
"1 c #B5BDAF",
"2 c #9DA89A",
"3 c #818B83",
"4 c #8C978C",
"5 c #8F998F",
"6 c #B3BAAD",
"7 c #9AA597",
"8 c #7E877F",
"9 c #9CAB68",
"0 c #ACB4A7",
"q c #BAC1B3",
"w c #727C76",
"e c #8F998E",
"r c #8D988D",
"t c #727A76",
"y c #A7B283",
"u c #C6D87D",
"i c #D1DF98",
"p c #54585B",
"a c #9DA69B",
"s c #7F8781",
"d c #A7AEA4",
"f c #9DA29C",
"g c #C5CAAE",
"h c #CBDB8B",
"j c #BEC0B9",
"k c #CDD1C6",
"l c #B4BAAF",
"z c #C9D0B2",
"x c #D0DAA7",
"c c #C3D2A1",
"v c #ADC771",
"b c #BED38F",
/* pixels */
"                                                                                                                                ",
"                                                                                                                                ",
"                                                                                                                                ",
"                                                                                                                                ",
"                                                                                                                                ",
"                                                                                                                                ",
"                                                                                                                                ",
"                                                                                                                                ",
"                                                                                                                                ",
"                                                                                                                                ",
"                                                                                                                                ",
"                                                                                                                                ",
"                                                                                                                                ",
"                                                                                                                                ",
"                                                   .........XXXXXXXXXXXXXXXXX                                                   ",
"                                                   .........XXXXXXXXXXXXXXXXX                                                   ",
"                oooooooo        oooooooo           .........XXXXXXXXXXXXXXXXX                                                   ",
"                oooooooo        oooooooo           .........XXXXXXXXXXXXXXXXX                                                   ",
"                oooooooo        oooooooo           .........XXXXXXXXXXXXXXXXX                                                   ",
"                oooooooo        oooooooo           .........XXXXXXXXXXXXXXXXX                                                   ",
"                oooooooo        oooooooo           .........XXXXXXXXXXXXXXXXX                                                   ",
"                oooooooo        oooooooo           .........XXXXXXXXXXXXXXXXX                                                   ",
"                oooooooo        oooooooo           .........XXXXXXXXXXXXXXXXX                                                   ",
"                oooooooo        ooOOOOOO...++++++++@@@@@@@@@#################++++++++                                           ",
"                        oooooooo  .........++++++++@@@@@@@@@#################++++++++                                           ",
"                        oooooooo  .........++++++++@@@@@@@@@#################++++++++                                           ",
"                        oooooooo  .........++++++++@@@@@@@@@#################++++++++                                           ",
"                        oooooooo  .........++++++++@@@@@@@@@#################++++++++                                           ",
"                        oooooooo  .........++++++++@@@@@@@@@#################++++++++                                           ",
"                        oooooooo  .........++++++++@@@@@@@@@#################++++++++                                           ",
"                        oooooooo  .........++++++++@@@@@@@@@#################++++++++                                           ",
"                 .......OO$$$$$$++%%%%%%%%%########&&&&&&&&&*****************########=========                                  ",
"                 .........++++++++%%%%%%%%%########&&&&&&&&&*****************########=========                                  ",
"                 .........++++++++%%%%%%%%%########&&&&&&&&&*****************########=========                                  ",
"                 .........++++++++%%%%%%%%%########&&&&&&&&&*****************########=========                                  ",
"                 .........++++++++%%%%%%%%%########&&&&&&&&&*****************########=========                                  ",
"                 .........++++++++%%%%%%%%%########&&&&&&&&&*****************########=========                                  ",
"                 .........++++++++%%%%%%%%%########&&&&&&&&&*****************########=========                                  ",
"                 .........++++++++%%%%%%%%%########&&&&&&&&&*****************########=========                                  ",
"                 .........++++++++%%%%%%%%%########&&&&&&&&&*****************########=========                                  ",
"                 %%%%%%%%%--------;;;;;;;;;::::::::>>>>>>>>>*****************,,,,,,,,+++++++++                                  ",
"                 %%%%%%%%%--------;;;;;;;;;::::::::>>>>>>>>>*****************,,,,,,,,+++++++++                                  ",
"                 %%%%%%%%%--------;;;;;;;;;::::::::>>>>>>>>>*****************,,,,,,,,+++++++++                                  ",
"                 %%%%%%%%%--------;;;;;;;;;::::::::>>>>>>>>>*****************,,,,,,,,+++++++++                                  ",
"                 %%%%%%%%%--------;;;;;;;;;::::::::>>>>>>>>>*****************,,,,,,,,+++++++++                                  ",
"                 %%%%%%%%%--------;;;;;;;;;::::::::>>>>>>>>>*****************,,,,,,,,+++++++++                                  ",
"                 %%%%%%%%%--------;;;;;;;;;::::::::>>>>>>>>>*****************,,,,,,,,+++++++++                                  ",
"                 %%%%%%%%%--------;;;;;;;;;::::::::>>>>>>>>>*****************,,,,,,,,+++++++++                                  ",
"         <<<<<<<<*****************111111111222222222222222222222222233333333333333333444444444++++++++                          ",
"         <<<<<<<<*****************111111111222222222222222222222222233333333333333333444444444++++++++                          ",
"         <<<<<<<<*****************111111111222222222222222222222222233333333333333333444444444++++++++                          ",
"         <<<<<<<<*****************111111111222222222222222222222222233333333333333333444444444++++++++                          ",
"         <<<<<<<<*****************111111111222222222222222222222222233333333333333333444444444++++++++                          ",
"         <<<<<<<<*****************111111111222222222222222222222222233333333333333333444444444++++++++                          ",
"         <<<<<<<<*****************111111111222222222222222222222222233333333333333333444444444++++++++                          ",
"         <<<<<<<<*****************111111111222222222222222222222222233333333333333333444444444++++++++                          ",
"         <<<<<<<<*****************111111111222222222222222222222222233333333333333333444444444++++++++                          ",
"         <<<<<<<<**********************************:::::::::222222223333333332222222222222222244444444+++++++++                 ",
"         <<<<<<<<**********************************:::::::::222222223333333332222222222222222244444444+++++++++                 ",
"         <<<<<<<<**********************************:::::::::222222223333333332222222222222222244444444+++++++++                 ",
"         <<<<<<<<**********************************:::::::::222222223333333332222222222222222244444444+++++++++                 ",
"         <<<<<<<<**********************************:::::::::222222223333333332222222222222222244444444+++++++++                 ",
"         <<<<<<<<**********************************:::::::::222222223333333332222222222222222244444444+++++++++                 ",
"         <<<<<<<<**********************************:::::::::222222223333333332222222222222222244444444+++++++++                 ",
"         <<<<<<<<**********************************:::::::::222222223333333332222222222222222244444444+++++++++                 ",
"         <<<<<<<<55555555566666666**********************************:::::::::444444442222222227777777788888888899999999         ",
"         <<<<<<<<55555555566666666**********************************:::::::::444444442222222227777777788888888899999999         ",
"         <<<<<<<<55555555566666666**********************************:::::::::444444442222222227777777788888888899999999         ",
"         <<<<<<<<55555555566666666**********************************:::::::::444444442222222227777777788888888899999999         ",
"         <<<<<<<<55555555566666666**********************************:::::::::444444442222222227777777788888888899999999         ",
"         <<<<<<<<55555555566666666**********************************:::::::::444444442222222227777777788888888899999999         ",
"         <<<<<<<<55555555566666666**********************************:::::::::444444442222222227777777788888888899999999         ",
"         <<<<<<<<55555555566666666**********************************:::::::::444444442222222227777777788888888899999999         ",
"         <<<<<<<<55555555566666666**********************************:::::::::444444442222222227777777788888888899999999         ",
"         <<<<<<<<33333333355555555000000000qqqqqqqq**************************wwwwwwwweeeeeeeeerrrrrrrrtttttttttyyyyyyyyuuuuuuuuu",
"         <<<<<<<<33333333355555555000000000qqqqqqqq**************************wwwwwwwweeeeeeeeerrrrrrrrtttttttttyyyyyyyyuuuuuuuuu",
"         <<<<<<<<33333333355555555000000000qqqqqqqq**************************wwwwwwwweeeeeeeeerrrrrrrrtttttttttyyyyyyyyuuuuuuuuu",
"         <<<<<<<<33333333355555555000000000qqqqqqqq**************************wwwwwwwweeeeeeeeerrrrrrrrtttttttttyyyyyyyyuuuuuuuuu",
"         <<<<<<<<33333333355555555000000000qqqqqqqq**************************wwwwwwwweeeeeeeeerrrrrrrrtttttttttyyyyyyyyuuuuuuuuu",
"         <<<<<<<<33333333355555555000000000qqqqqqqq**************************wwwwwwwweeeeeeeeerrrrrrrrtttttttttyyyyyyyyuuuuuuuuu",
"         <<<<<<<<33333333355555555000000000qqqqqqqq**************************wwwwwwwweeeeeeeeerrrrrrrrtttttttttyyyyyyyyuuuuuuuuu",
"         <<<<<<<<33333333355555555000000000qqqqqqqq**************************wwwwwwwweeeeeeeeerrrrrrrrtttttttttyyyyyyyyuuuuuuuuu",
"iiiiiiiiipppppppp33333333333333333333333333aaaaaaaa0000000000000000000000000033333333sssssssssddddddddfffffffffgggggggghhhhhhhhh",
"iiiiiiiiipppppppp33333333333333333333333333aaaaaaaa0000000000000000000000000033333333sssssssssddddddddfffffffffgggggggghhhhhhhhh",
"iiiiiiiiipppppppp33333333333333333333333333aaaaaaaa0000000000000000000000000033333333sssssssssddddddddfffffffffgggggggghhhhhhhhh",
"iiiiiiiiipppppppp33333333333333333333333333aaaaaaaa0000000000000000000000000033333333sssssssssddddddddfffffffffgggggggghhhhhhhhh",
"iiiiiiiiipppppppp33333333333333333333333333aaaaaaaa0000000000000000000000000033333333sssssssssddddddddfffffffffgggggggghhhhhhhhh",
"iiiiiiiiipppppppp33333333333333333333333333aaaaaaaa0000000000000000000000000033333333sssssssssddddddddfffffffffgggggggghhhhhhhhh",
"iiiiiiiiipppppppp33333333333333333333333333aaaaaaaa0000000000000000000000000033333333sssssssssddddddddfffffffffgggggggghhhhhhhhh",
"iiiiiiiiipppppppp33333333333333333333333333aaaaaaaa0000000000000000000000000033333333sssssssssddddddddfffffffffgggggggghhhhhhhhh",
"iiiiiiiiipppppppp33333333333333333333333333aaaaaaaa0000000000000000000000000033333333sssssssssddddddddfffffffffgggggggghhhhhhhhh",
"iiiiiiiiijjjjjjjjkkkkkkkkkllllllll333333333333333333333333333333333333333333333333333zzzzzzzzziiiiiiiiiiiiiiiiiuuuuuuuu         ",
"iiiiiiiiijjjjjjjjkkkkkkkkkllllllll333333333333333333333333333333333333333333333333333zzzzzzzzziiiiiiiiiiiiiiiiiuuuuuuuu         ",
"iiiiiiiiijjjjjjjjkkkkkkkkkllllllll333333333333333333333333333333333333333333333333333zzzzzzzzziiiiiiiiiiiiiiiiiuuuuuuuu         ",
"iiiiiiiiijjjjjjjjkkkkkkkkkllllllll333333333333333333333333333333333333333333333333333zzzzzzzzziiiiiiiiiiiiiiiiiuuuuuuuu         ",
"iiiiiiiiijjjjjjjjkkkkkkkkkllllllll333333333333333333333333333333333333333333333333333zzzzzzzzziiiiiiiiiiiiiiiiiuuuuuuuu         ",
"iiiiiiiiijjjjjjjjkkkkkkkkkllllllll333333333333333333333333333333333333333333333333333zzzzzzzzziiiiiiiiiiiiiiiiiuuuuuuuu         ",
"iiiiiiiiijjjjjjjjkkkkkkkkkllllllll333333333333333333333333333333333333333333333333333zzzzzzzzziiiiiiiiiiiiiiiiiuuuuuuuu         ",
"iiiiiiiiijjjjjjjjkkkkkkkkkllllllll333333333333333333333333333333333333333333333333333zzzzzzzzziiiiiiiiiiiiiiiiiuuuuuuuu         ",
"         iiiiiiiiiiiiiiiiixxxxxxxxkkkkkkkkkkkkkkkkkkkkkkkkkkkkkkkkkkkkkkkkkkkkkkkkkkkhhhhhhhhh                                  ",
"         iiiiiiiiiiiiiiiiixxxxxxxxkkkkkkkkkkkkkkkkkkkkkkkkkkkkkkkkkkkkkkkkkkkkkkkkkkkhhhhhhhhh                                  ",
"         iiiiiiiiiiiiiiiiixxxxxxxxkkkkkkkkkkkkkkkkkkkkkkkkkkkkkkkkkkkkkkkkkkkkkkkkkkkhhhhhhhhh                                  ",
"         iiiiiiiiiiiiiiiiixxxxxxxxkkkkkkkkkkkkkkkkkkkkkkkkkkkkkkkkkkkkkkkkkkkkkkkkkkkhhhhhhhhh                                  ",
"         iiiiiiiiiiiiiiiiixxxxxxxxkkkkkkkkkkkkkkkkkkkkkkkkkkkkkkkkkkkkkkkkkkkkkkkkkkkhhhhhhhhh                                  ",
"         iiiiiiiiiiiiiiiiixxxxxxcckkkkkkkkkkkkkkkkkkkkkkkkkkkkkkkkkkkkkkkkkkkkkkkkkkkhhhhhhhhh                                  ",
"         iiiiiiiiiiiiiiiiixxxxxxcckkkkkkkkkkkkkkkkkkkkkkkkkkkkkkkkkkkkkkkkkkkkkkkkkkkhhhhhhhhh                                  ",
"         iiiiiiiiiiiiiiiiixxxxxxcckkkkkkkkkkkkkkkkkkkkkkkkkkkkkkkkkkkkkkkkkkkkkkkkkkkhhhhhhhhh                                  ",
"         iiiiiiiiiiiiiiiiixxxxxxcckkkkkkkkkkkkkkkkkkkkkkkkkkkkkkkkkkkkkkkkkkkkkkkkkkkhhhhhhhhh                                  ",
"                          uuuuuuvvbbbbbbiiiiiiiibbbbbbbbiiiiiiiiiiiiiiiiiiiiiiiiiiiii                                           ",
"                          uuuuuuvvbbbbbbiiiiiiiibbbbbbbbiiiiiiiiiiiiiiiiiiiiiiiiiiiii                                           ",
"                          uuuuuuvvbbbbbbiiiiiiiibbbbbbbbiiiiiiiiiiiiiiiiiiiiiiiiiiiii                                           ",
"                          uuuuuuvvbbbbbbiiiiiiiibbbbbbbbiiiiiiiiiiiiiiiiiiiiiiiiiiiii                                           ",
"                          uuuuuuuuiiiiiibbbbbbbbiiiiiiiiiiiiiiiiiiiiiiiiiiiiiiiiiiiii                                           ",
"                          uuuuuuuuiiiiiibbbbbbbbiiiiiiiiiiiiiiiiiiiiiiiiiiiiiiiiiiiii                                           ",
"                          uuuuuuuuiiiiiibbbbbbbbiiiiiiiiiiiiiiiiiiiiiiiiiiiiiiiiiiiii                                           ",
"                          uuuuuuuuiiiiiibbbbbbbbiiiiiiiiiiiiiiiiiiiiiiiiiiiiiiiiiiiii                                           ",
"                                        oooooooo                                                                                ",
"                                        oooooooo                                                                                ",
"                                        oooooooo                                                                                ",
"                                        oooooooo                                                                                ",
"                                                                                                                                ",
"                                                                                                                                ",
"                                                                                                                                ",
"                                                                                                                                ",
"                                                                                                                                ",
"                                                                                                                                ",
"                                                                                                                                ",
"                                                                                                                                "
};
