/* XPM */
static char *c93619f0bf6c40f4a45ef0cc26a34475Om9GbzQA4r3Ahsoj[] = {
/* columns rows colors chars-per-pixel */
"128 128 6 1 ",
"  c #C0D470",
". c #A4C263",
"X c #B78A62",
"o c #E8CFA6",
"O c #C49A6C",
"+ c #AA7959",
/* pixels */
"                                                                                                                                ",
"                                                                                                                                ",
"                                                                                                                                ",
"                                                                                                                                ",
"                                                                                                                                ",
"                                                                                                                                ",
"                                                                                                                                ",
"                                                                                                                                ",
"                                                                                                                                ",
"                                                                                                                                ",
"                                                                                                                                ",
"                                                                                                                                ",
"                                                                                                                                ",
"                                                                                                                                ",
"                                                                                                                                ",
"                                                                                                                                ",
"                ........        ........                                                                                        ",
"                ........        ........                                                                                        ",
"                ........        ........                                                                                        ",
"                ........        ........                                                                                        ",
"                ........        ........                                                                                        ",
"                ........        ........                                                                                        ",
"                ........        ........                                                                                        ",
"                ........        ........                                                                                        ",
"                        ........                XXXXXXXXXXXXXXXXXXXXXXXXXXXXXXXX                                                ",
"                        ........                XXXXXXXXXXXXXXXXXXXXXXXXXXXXXXXX                                                ",
"                        ........                XXXXXXXXXXXXXXXXXXXXXXXXXXXXXXXX                                                ",
"                        ........                XXXXXXXXXXXXXXXXXXXXXXXXXXXXXXXX                                                ",
"                        ........                XXXXXXXXXXXXXXXXXXXXXXXXXXXXXXXX                                                ",
"                        ........                XXXXXXXXXXXXXXXXXXXXXXXXXXXXXXXX                                                ",
"                        ........                XXXXXXXXXXXXXXXXXXXXXXXXXXXXXXXX                                                ",
"                        ........                XXXXXXXXXXXXXXXXXXXXXXXXXXXXXXXX                                                ",
"                                        XXXXXXXXooooooooooooooooooooooooooooooooXXXXXXXX                                        ",
"                                        XXXXXXXXooooooooooooooooooooooooooooooooXXXXXXXX                                        ",
"                                        XXXXXXXXooooooooooooooooooooooooooooooooXXXXXXXX                                        ",
"                                        XXXXXXXXooooooooooooooooooooooooooooooooXXXXXXXX                                        ",
"                                        XXXXXXXXooooooooooooooooooooooooooooooooXXXXXXXX                                        ",
"                                        XXXXXXXXooooooooooooooooooooooooooooooooXXXXXXXX                                        ",
"                                        XXXXXXXXooooooooooooooooooooooooooooooooXXXXXXXX                                        ",
"                                        XXXXXXXXooooooooooooooooooooooooooooooooXXXXXXXX                                        ",
"                                        XXXXXXXXooooooooooooooooooooooooooooooooXXXXXXXX                                        ",
"                                        XXXXXXXXooooooooooooooooooooooooooooooooXXXXXXXX                                        ",
"                                        XXXXXXXXooooooooooooooooooooooooooooooooXXXXXXXX                                        ",
"                                        XXXXXXXXooooooooooooooooooooooooooooooooXXXXXXXX                                        ",
"                                        XXXXXXXXooooooooooooooooooooooooooooooooXXXXXXXX                                        ",
"                                        XXXXXXXXooooooooooooooooooooooooooooooooXXXXXXXX                                        ",
"                                        XXXXXXXXooooooooooooooooooooooooooooooooXXXXXXXX                                        ",
"                                        XXXXXXXXooooooooooooooooooooooooooooooooXXXXXXXX                                        ",
"OOOOOOOOOOOOOOOOOOOOOOOOOOOOOOOOXXXXXXXX++++++++OOOOOOOOooooooooooooooooOOOOOOOO++++++++XXXXXXXXOOOOOOOOOOOOOOOOOOOOOOOOOOOOOOOO",
"OOOOOOOOOOOOOOOOOOOOOOOOOOOOOOOOXXXXXXXX++++++++OOOOOOOOooooooooooooooooOOOOOOOO++++++++XXXXXXXXOOOOOOOOOOOOOOOOOOOOOOOOOOOOOOOO",
"OOOOOOOOOOOOOOOOOOOOOOOOOOOOOOOOXXXXXXXX++++++++OOOOOOOOooooooooooooooooOOOOOOOO++++++++XXXXXXXXOOOOOOOOOOOOOOOOOOOOOOOOOOOOOOOO",
"OOOOOOOOOOOOOOOOOOOOOOOOOOOOOOOOXXXXXXXX++++++++OOOOOOOOooooooooooooooooOOOOOOOO++++++++XXXXXXXXOOOOOOOOOOOOOOOOOOOOOOOOOOOOOOOO",
"OOOOOOOOOOOOOOOOOOOOOOOOOOOOOOOOXXXXXXXX++++++++OOOOOOOOooooooooooooooooOOOOOOOO++++++++XXXXXXXXOOOOOOOOOOOOOOOOOOOOOOOOOOOOOOOO",
"OOOOOOOOOOOOOOOOOOOOOOOOOOOOOOOOXXXXXXXX++++++++OOOOOOOOooooooooooooooooOOOOOOOO++++++++XXXXXXXXOOOOOOOOOOOOOOOOOOOOOOOOOOOOOOOO",
"OOOOOOOOOOOOOOOOOOOOOOOOOOOOOOOOXXXXXXXX++++++++OOOOOOOOooooooooooooooooOOOOOOOO++++++++XXXXXXXXOOOOOOOOOOOOOOOOOOOOOOOOOOOOOOOO",
"OOOOOOOOOOOOOOOOOOOOOOOOOOOOOOOOXXXXXXXX++++++++OOOOOOOOooooooooooooooooOOOOOOOO++++++++XXXXXXXXOOOOOOOOOOOOOOOOOOOOOOOOOOOOOOOO",
"++++++++++++++++++++++++++++++++++++++++++++++++OOOOOOOOOOOOOOOOOOOOOOOOOOOOOOOO++++++++++++++++++++++++++++++++++++++++++++++++",
"++++++++++++++++++++++++++++++++++++++++++++++++OOOOOOOOOOOOOOOOOOOOOOOOOOOOOOOO++++++++++++++++++++++++++++++++++++++++++++++++",
"++++++++++++++++++++++++++++++++++++++++++++++++OOOOOOOOOOOOOOOOOOOOOOOOOOOOOOOO++++++++++++++++++++++++++++++++++++++++++++++++",
"++++++++++++++++++++++++++++++++++++++++++++++++OOOOOOOOOOOOOOOOOOOOOOOOOOOOOOOO++++++++++++++++++++++++++++++++++++++++++++++++",
"++++++++++++++++++++++++++++++++++++++++++++++++OOOOOOOOOOOOOOOOOOOOOOOOOOOOOOOO++++++++++++++++++++++++++++++++++++++++++++++++",
"++++++++++++++++++++++++++++++++++++++++++++++++OOOOOOOOOOOOOOOOOOOOOOOOOOOOOOOO++++++++++++++++++++++++++++++++++++++++++++++++",
"++++++++++++++++++++++++++++++++++++++++++++++++OOOOOOOOOOOOOOOOOOOOOOOOOOOOOOOO++++++++++++++++++++++++++++++++++++++++++++++++",
"++++++++++++++++++++++++++++++++++++++++++++++++OOOOOOOOOOOOOOOOOOOOOOOOOOOOOOOO++++++++++++++++++++++++++++++++++++++++++++++++",
"                                        ++++++++OOOOOOOOOOOOOOOOOOOOOOOOOOOOOOOO++++++++                                        ",
"                                        ++++++++OOOOOOOOOOOOOOOOOOOOOOOOOOOOOOOO++++++++                                        ",
"                                        ++++++++OOOOOOOOOOOOOOOOOOOOOOOOOOOOOOOO++++++++                                        ",
"                                        ++++++++OOOOOOOOOOOOOOOOOOOOOOOOOOOOOOOO++++++++                                        ",
"                                        ++++++++OOOOOOOOOOOOOOOOOOOOOOOOOOOOOOOO++++++++                                        ",
"                                        ++++++++OOOOOOOOOOOOOOOOOOOOOOOOOOOOOOOO++++++++                                        ",
"                                        ++++++++OOOOOOOOOOOOOOOOOOOOOOOOOOOOOOOO++++++++                                        ",
"                                        ++++++++OOOOOOOOOOOOOOOOOOOOOOOOOOOOOOOO++++++++                                        ",
"OOOOOOOOOOOOOOOOOOOOOOOOOOOOOOOOXXXXXXXX++++++++OOOOOOOOOOOOOOOOOOOOOOOOOOOOOOOO++++++++XXXXXXXXOOOOOOOOOOOOOOOOOOOOOOOOOOOOOOOO",
"OOOOOOOOOOOOOOOOOOOOOOOOOOOOOOOOXXXXXXXX++++++++OOOOOOOOOOOOOOOOOOOOOOOOOOOOOOOO++++++++XXXXXXXXOOOOOOOOOOOOOOOOOOOOOOOOOOOOOOOO",
"OOOOOOOOOOOOOOOOOOOOOOOOOOOOOOOOXXXXXXXX++++++++OOOOOOOOOOOOOOOOOOOOOOOOOOOOOOOO++++++++XXXXXXXXOOOOOOOOOOOOOOOOOOOOOOOOOOOOOOOO",
"OOOOOOOOOOOOOOOOOOOOOOOOOOOOOOOOXXXXXXXX++++++++OOOOOOOOOOOOOOOOOOOOOOOOOOOOOOOO++++++++XXXXXXXXOOOOOOOOOOOOOOOOOOOOOOOOOOOOOOOO",
"OOOOOOOOOOOOOOOOOOOOOOOOOOOOOOOOXXXXXXXX++++++++OOOOOOOOOOOOOOOOOOOOOOOOOOOOOOOO++++++++XXXXXXXXOOOOOOOOOOOOOOOOOOOOOOOOOOOOOOOO",
"OOOOOOOOOOOOOOOOOOOOOOOOOOOOOOOOXXXXXXXX++++++++OOOOOOOOOOOOOOOOOOOOOOOOOOOOOOOO++++++++XXXXXXXXOOOOOOOOOOOOOOOOOOOOOOOOOOOOOOOO",
"OOOOOOOOOOOOOOOOOOOOOOOOOOOOOOOOXXXXXXXX++++++++OOOOOOOOOOOOOOOOOOOOOOOOOOOOOOOO++++++++XXXXXXXXOOOOOOOOOOOOOOOOOOOOOOOOOOOOOOOO",
"OOOOOOOOOOOOOOOOOOOOOOOOOOOOOOOOXXXXXXXX++++++++OOOOOOOOOOOOOOOOOOOOOOOOOOOOOOOO++++++++XXXXXXXXOOOOOOOOOOOOOOOOOOOOOOOOOOOOOOOO",
"++++++++++++++++++++++++++++++++++++++++++++++++OOOOOOOOOOOOOOOOOOOOOOOOOOOOOOOO++++++++++++++++++++++++++++++++++++++++++++++++",
"++++++++++++++++++++++++++++++++++++++++++++++++OOOOOOOOOOOOOOOOOOOOOOOOOOOOOOOO++++++++++++++++++++++++++++++++++++++++++++++++",
"++++++++++++++++++++++++++++++++++++++++++++++++OOOOOOOOOOOOOOOOOOOOOOOOOOOOOOOO++++++++++++++++++++++++++++++++++++++++++++++++",
"++++++++++++++++++++++++++++++++++++++++++++++++OOOOOOOOOOOOOOOOOOOOOOOOOOOOOOOO++++++++++++++++++++++++++++++++++++++++++++++++",
"++++++++++++++++++++++++++++++++++++++++++++++++OOOOOOOOOOOOOOOOOOOOOOOOOOOOOOOO++++++++++++++++++++++++++++++++++++++++++++++++",
"++++++++++++++++++++++++++++++++++++++++++++++++OOOOOOOOOOOOOOOOOOOOOOOOOOOOOOOO++++++++++++++++++++++++++++++++++++++++++++++++",
"++++++++++++++++++++++++++++++++++++++++++++++++OOOOOOOOOOOOOOOOOOOOOOOOOOOOOOOO++++++++++++++++++++++++++++++++++++++++++++++++",
"++++++++++++++++++++++++++++++++++++++++++++++++OOOOOOOOOOOOOOOOOOOOOOOOOOOOOOOO++++++++++++++++++++++++++++++++++++++++++++++++",
"++++++++++++++++++++++++++++++++++++++++++++++++XXXXXXXXOOOOOOOOOOOOOOOOXXXXXXXX++++++++++++++++++++++++++++++++++++++++++++++++",
"++++++++++++++++++++++++++++++++++++++++++++++++XXXXXXXXOOOOOOOOOOOOOOOOXXXXXXXX++++++++++++++++++++++++++++++++++++++++++++++++",
"++++++++++++++++++++++++++++++++++++++++++++++++XXXXXXXXOOOOOOOOOOOOOOOOXXXXXXXX++++++++++++++++++++++++++++++++++++++++++++++++",
"++++++++++++++++++++++++++++++++++++++++++++++++XXXXXXXXOOOOOOOOOOOOOOOOXXXXXXXX++++++++++++++++++++++++++++++++++++++++++++++++",
"++++++++++++++++++++++++++++++++++++++++++++++++XXXXXXXXOOOOOOOOOOOOOOOOXXXXXXXX++++++++++++++++++++++++++++++++++++++++++++++++",
"++++++++++++++++++++++++++++++++++++++++++++++++XXXXXXXXOOOOOOOOOOOOOOOOXXXXXXXX++++++++++++++++++++++++++++++++++++++++++++++++",
"++++++++++++++++++++++++++++++++++++++++++++++++XXXXXXXXOOOOOOOOOOOOOOOOXXXXXXXX++++++++++++++++++++++++++++++++++++++++++++++++",
"++++++++++++++++++++++++++++++++++++++++++++++++XXXXXXXXOOOOOOOOOOOOOOOOXXXXXXXX++++++++++++++++++++++++++++++++++++++++++++++++",
"                                        ++++++++XXXXXXXXXXXXXXXXXXXXXXXXXXXXXXXX++++++++                                        ",
"                                        ++++++++XXXXXXXXXXXXXXXXXXXXXXXXXXXXXXXX++++++++                                        ",
"                                        ++++++++XXXXXXXXXXXXXXXXXXXXXXXXXXXXXXXX++++++++                                        ",
"                                        ++++++++XXXXXXXXXXXXXXXXXXXXXXXXXXXXXXXX++++++++                                        ",
"                                        ++++++++XXXXXXXXXXXXXXXXXXXXXXXXXXXXXXXX++++++++                                        ",
"                                        ++++++++XXXXXXXXXXXXXXXXXXXXXXXXXXXXXXXX++++++++                                        ",
"                                        ++++++++XXXXXXXXXXXXXXXXXXXXXXXXXXXXXXXX++++++++                                        ",
"                                        ++++++++XXXXXXXXXXXXXXXXXXXXXXXXXXXXXXXX++++++++                                        ",
"                                ........        XXXXXXXXXXXXXXXXXXXXXXXXXXXXXXXX                                                ",
"                                ........        XXXXXXXXXXXXXXXXXXXXXXXXXXXXXXXX                                                ",
"                                ........        XXXXXXXXXXXXXXXXXXXXXXXXXXXXXXXX                                                ",
"                                ........        XXXXXXXXXXXXXXXXXXXXXXXXXXXXXXXX                                                ",
"                                ........        XXXXXXXXXXXXXXXXXXXXXXXXXXXXXXXX                                                ",
"                                ........        XXXXXXXXXXXXXXXXXXXXXXXXXXXXXXXX                                                ",
"                                ........        XXXXXXXXXXXXXXXXXXXXXXXXXXXXXXXX                                                ",
"                                ........        XXXXXXXXXXXXXXXXXXXXXXXXXXXXXXXX                                                ",
"                                        ........                                                                                ",
"                                        ........                                                                                ",
"                                        ........                                                                                ",
"                                        ........                                                                                ",
"                                        ........                                                                                ",
"                                        ........                                                                                ",
"                                        ........                                                                                ",
"                                        ........                                                                                ",
"                                                                                                                                ",
"                                                                                                                                ",
"                                                                                                                                ",
"                                                                                                                                ",
"                                                                                                                                ",
"                                                                                                                                ",
"                                                                                                                                ",
"                                                                                                                                "
};
